<svg width="30" height="30" viewBox="0 0 30 30" fill="none" xmlns="http://www.w3.org/2000/svg">
    <path d="M15.568 28.5096C16.1042 28.2001 16.2879 27.5145 15.9783 26.9783C15.6688 26.4422 14.9832 26.2585 14.447 26.568C13.9108 26.8776 13.7271 27.5632 14.0367 28.0993C14.3462 28.6355 15.0318 28.8192 15.568 28.5096Z" fill="white"/>
    <path d="M5.43714 24.8217C5.9733 24.5122 6.157 23.8266 5.84745 23.2904C5.53789 22.7543 4.85231 22.5705 4.31614 22.8801C3.77998 23.1897 3.59628 23.8752 3.90583 24.4114C4.21539 24.9476 4.90097 25.1313 5.43714 24.8217Z" fill="white"/>
    <path d="M19.0912 18.3129V24.0406H21.5459" stroke="white" stroke-width="2" stroke-linecap="round" stroke-linejoin="round"/>
    <path d="M26.3031 24.3528C26.6127 23.8166 26.429 23.131 25.8928 22.8215C25.3567 22.5119 24.6711 22.6956 24.3615 23.2318C24.052 23.7679 24.2357 24.4535 24.7718 24.7631C25.308 25.0726 25.9936 24.8889 26.3031 24.3528Z" fill="white"/>
    <path d="M7.41485 18.3702H6.51479C5.09779 18.3965 3.72875 17.857 2.71061 16.8711C1.69247 15.8852 1.10919 14.5342 1.08984 13.1171C1.14755 10.2264 3.50076 7.90947 6.39205 7.89672C7.457 4.68046 10.3111 2.38919 13.6815 2.04473C17.052 1.70027 20.3106 3.36681 22.0041 6.30115C22.225 6.30115 22.446 6.30115 22.6669 6.30115C26.0385 6.25519 28.8208 8.92807 28.9101 12.2989C28.8592 15.2843 26.6588 17.796 23.7061 18.2393L22.6096 18.3702" stroke="white" stroke-width="2.1" stroke-linecap="round" stroke-linejoin="round"/>
    <path d="M16.5382 12.2989C16.6053 8.899 19.4142 6.19635 22.8141 6.26023" stroke="white" stroke-width="2.1" stroke-linecap="round" stroke-linejoin="round"/>
    <path d="M14.9999 24.0979V18.3702H15.0081H10.9087V24.0979H8.45398" stroke="white" stroke-width="2" stroke-linecap="round" stroke-linejoin="round"/>
</svg>
