<svg width="1028" height="180" viewBox="0 0 1028 180" fill="none" xmlns="http://www.w3.org/2000/svg">
<g clip-path="url(#clip0)">
<rect width="1028" height="180" rx="15" transform="matrix(-1 -4.53897e-09 1.42955e-08 1 1027.6 -0.0258789)" fill="url(#paint0_linear)"/>
<mask id="mask0" mask-type="alpha" maskUnits="userSpaceOnUse" x="-1" y="-1" width="1029" height="181">
<rect width="1028" height="180" rx="15" transform="matrix(-1 -4.53897e-09 1.42955e-08 1 1027.6 -0.0258789)" fill="url(#paint1_linear)"/>
</mask>
<g mask="url(#mask0)">
<path opacity="0.5778" d="M-155.83 339.035C-149.553 339.63 -102.204 332.018 -32.8675 321.65C-21.3113 319.922 -9.58779 318.411 2.97874 316.376C49.9328 309.331 103.176 299.655 153 289.857C173.088 285.711 191.998 281.655 209.897 277.906C239.131 271.601 264.665 265.349 289.53 258.227C303.561 254.313 317.312 250.574 331.792 246.703C359.741 239.268 391.11 231.955 427.465 225.721C442.949 223.155 458.432 220.589 474.311 217.456C508.705 210.834 540.187 203.128 569.589 197.041C599.439 190.997 627.717 185.61 657.334 181.964C670.964 180.231 685.378 178.976 699.959 177.938C750.32 174.242 806.223 172.888 860.481 176.42C867.935 176.925 874.942 177.388 882.115 178.068C941.747 183.724 1006.22 198.916 1043.52 208.505" stroke="url(#paint2_linear)" stroke-width="1.4002" stroke-miterlimit="10"/>
<path opacity="0.5667" d="M-146.264 329.856C-140.201 328.011 -93.0675 317.957 -24.3999 306.719C-13.0111 304.773 -1.00662 303.088 11.1116 301.01C57.7309 293.53 110.526 283.812 160.069 274.189C180.043 270.435 198.953 266.379 216.571 262.805C245.692 256.893 271.279 251.251 295.917 244.914C309.834 241.393 323.752 237.872 338.119 234.393C366.122 227.568 397.096 220.824 433.337 214.982C448.821 212.416 464.305 209.85 479.902 206.892C513.848 200.227 545.444 192.129 574.511 185.607C604.307 178.952 632.251 173.131 661.532 169.049C675.163 167.316 689.242 165.626 703.937 164.196C753.796 159.847 809.531 158.275 863.508 161.982C870.514 162.445 877.969 162.95 884.862 163.806C944.045 169.419 1007.84 185.353 1044.07 196.253" stroke="url(#paint3_linear)" stroke-width="1.3581" stroke-miterlimit="10"/>
<path opacity="0.5556" d="M-136.811 321.071C-130.963 316.784 -84.3253 304.465 -15.7651 292.006C-4.54365 289.843 7.29353 287.94 19.4117 285.862C65.6963 277.947 118.324 268.011 167.472 258.955C187.446 255.202 206.242 251.538 223.747 248.357C252.754 242.838 278.396 237.806 302.638 232.037C316.442 228.908 330.247 225.78 344.78 222.519C372.556 216.479 403.865 210.169 439.376 204.46C454.579 202.069 470.063 199.504 485.494 196.328C519.439 189.663 550.419 181.305 579.152 174.348C608.614 167.258 636.222 161.001 665.45 156.309C679.195 154.184 693.106 152.276 707.52 151.02C757.325 146.062 812.277 144.012 866.254 147.719C873.26 148.182 880.434 148.862 887.608 149.542C946.229 155.505 1009.02 171.748 1044.91 183.826" stroke="url(#paint4_linear)" stroke-width="1.316" stroke-miterlimit="10"/>
<path opacity="0.5444" d="M-127.358 312.285C-121.725 305.557 -75.4157 291.19 -7.41137 277.468C3.81008 275.305 15.4799 273.184 27.7117 270.713C73.4943 262.145 125.674 252.167 174.708 243.505C194.401 239.926 212.916 236.437 230.869 233.299C259.482 228.347 285.177 223.926 309.754 218.592C323.726 215.681 337.416 212.945 351.836 210.076C379.666 204.647 410.58 198.905 446.259 193.414C461.462 191.023 476.665 188.632 492.095 185.456C525.592 178.749 556.405 170.173 585.084 162.606C614.211 155.081 641.598 147.996 670.94 142.912C684.517 140.569 698.429 138.661 712.789 136.795C762.092 131.183 817.158 128.741 870.405 132.581C877.411 133.043 884.585 133.724 891.759 134.404C950.099 140.542 1012.04 157.31 1046.86 170.698" stroke="url(#paint5_linear)" stroke-width="1.2739" stroke-miterlimit="10"/>
<path opacity="0.5333" d="M-117.905 303.499C-112.487 294.33 -66.6737 277.697 0.774909 262.712C11.829 260.331 23.3315 257.993 35.5633 255.522C81.0111 246.519 132.742 236.499 181.496 228.011C200.908 224.607 219.59 221.336 237.262 218.373C265.761 213.814 291.343 209.785 315.86 205.454C329.718 202.936 343.576 200.417 358.049 198.159C385.933 193.34 416.62 188.384 451.85 182.849C466.772 180.634 482.256 178.068 497.405 175.067C530.735 168.142 561.213 159.132 589.725 151.346C618.517 143.386 645.851 135.691 674.858 130.172C688.267 127.611 702.012 125.485 716.372 123.62C765.454 117.18 820.071 114.695 872.87 118.492C879.877 118.955 887.05 119.636 893.776 120.273C951.835 126.587 1012.94 143.879 1046.85 158.796" stroke="url(#paint6_linear)" stroke-width="1.2318" stroke-miterlimit="10"/>
<path opacity="0.5222" d="M-108.847 295.281C-103.644 283.671 -58.1586 264.99 8.7342 248.742C19.6209 246.143 31.4044 243.63 43.1878 241.116C88.301 231.678 139.865 221.44 188.056 213.303C207.468 209.899 226.037 207.021 243.428 204.232C271.813 200.066 297.167 196.823 321.739 193.101C335.483 190.976 349.394 189.068 363.868 186.81C391.524 182.776 422.378 178.037 457.214 173.07C472.136 170.855 487.339 168.464 502.321 165.246C535.37 158.496 565.513 149.05 593.523 140.612C621.98 132.217 648.979 124.086 677.765 117.739C691.007 114.961 704.865 112.442 719.058 110.359C767.806 103.485 822.088 100.564 874.72 104.144C881.726 104.607 888.452 105.245 895.625 105.925C953.404 112.413 1013.38 130.407 1046.79 146.283" stroke="url(#paint7_linear)" stroke-width="1.1897" stroke-miterlimit="10"/>
<path opacity="0.5111" d="M-99.9557 286.845C-94.9677 272.795 -49.9782 251.847 16.5262 234.554C27.2456 231.738 38.8617 229.007 50.9261 226.318C95.8182 216.052 146.82 206.164 194.731 198.202C213.861 194.973 232.43 192.095 249.875 189.917C278.147 186.143 303.554 183.51 327.731 180.357C341.361 178.624 355.44 176.933 369.8 175.068C397.343 171.427 427.97 167.473 462.806 162.506C477.728 160.291 492.649 158.075 507.631 154.857C540.513 147.889 570.489 138.226 598.164 129.353C626.568 120.347 653.232 111.782 681.683 104.999C694.758 102.003 708.449 99.2674 722.641 97.1843C771.168 89.4819 825.115 86.1263 877.185 90.0561C884.192 90.5189 890.917 91.1568 897.81 92.0122C955.14 98.4581 1014.44 117.194 1046.78 134.381" stroke="url(#paint8_linear)" stroke-width="1.1476" stroke-miterlimit="10"/>
<path opacity="0.5" d="M-91.1783 278.802C-86.2377 262.528 -41.7442 239.314 24.4854 220.583C35.3185 217.374 46.6536 214.819 58.5507 211.913C103.108 201.211 153.494 191.063 201.459 183.711C220.757 180.7 239.044 177.997 256.208 175.994C284.366 172.613 309.547 170.765 334.058 168.047C347.856 166.531 361.54 165.408 375.786 163.936C403.101 161.08 433.782 157.736 468.337 152.945C482.978 150.904 497.9 148.689 512.882 145.47C545.315 138.46 575.124 128.579 602.745 119.096C630.814 109.655 657.257 100.262 685.541 93.2621C698.729 89.8735 712.42 87.1375 726.278 84.6192C774.47 76.4817 828.083 72.691 879.704 76.5783C886.711 77.0411 893.436 77.6789 900.329 78.5343C957.097 85.3303 1015.55 104.591 1047.1 122.914" stroke="url(#paint9_linear)" stroke-width="1.1055" stroke-miterlimit="10"/>
<path opacity="0.4889" d="M-82.401 270.759C-77.6752 252.044 -33.6774 226.565 32.1638 206.788C42.9968 203.579 53.9971 200.588 65.8943 197.682C110.117 186.546 160.055 176.355 207.738 169.178C226.755 166.342 244.762 163.814 262.093 162.028C290.137 159.04 315.372 157.802 339.655 155.869C353.34 154.747 367.191 153.842 381.324 152.761C408.693 150.516 439.26 147.565 473.253 143.124C487.894 141.083 502.816 138.868 517.349 135.606C549.782 128.597 578.808 118.238 606.261 108.537C633.996 98.6611 660.385 88.6574 688.335 81.2224C701.356 77.6162 714.879 74.6627 728.737 72.1444C776.708 63.179 830.153 59.1707 881.326 63.0155C888.052 63.6533 895.058 64.1161 901.67 65.1466C958.157 72.1177 1015.6 91.6863 1046.53 111.362" stroke="url(#paint10_linear)" stroke-width="1.0634" stroke-miterlimit="10"/>
<path opacity="0.4778" d="M-74.3528 262.849C-69.8419 241.693 -26.3399 213.947 38.9455 192.907C49.6112 189.481 60.8926 186.315 72.3414 183.367C116.062 171.578 166 161.387 213.121 154.56C232.138 151.724 250.031 149.588 267.249 148.195C295.347 145.817 320.3 144.755 344.356 143.607C357.927 142.877 371.665 142.365 385.965 141.502C413.388 139.867 443.727 137.701 477.439 133.435C491.799 131.57 506.721 129.354 521.255 126.093C553.52 118.865 582.379 108.289 609.498 98.153C636.897 87.8418 662.952 77.403 690.68 69.1401C703.534 65.3163 716.89 62.1453 730.862 59.2343C778.33 49.6162 831.609 45.3902 882.501 49.41C889.226 50.0479 895.951 50.6857 902.677 51.3235C958.883 58.4697 1015.21 78.7385 1045.35 99.5496" stroke="url(#paint11_linear)" stroke-width="1.0213" stroke-miterlimit="10"/>
<path opacity="0.4667" d="M-66.4189 255.331C-62.1228 231.734 -18.9494 201.94 45.7803 179.637C56.2786 175.993 67.3927 172.61 78.9551 169.269C122.341 157.044 171.663 146.594 218.671 140.159C237.407 137.498 255.467 135.58 272.404 134.363C300.388 132.377 325.114 132.1 349.224 131.563C362.962 131.05 376.587 130.93 390.94 130.678C418.135 129.828 448.643 127.88 482.073 123.789C496.601 122.141 511.074 119.883 525.608 116.622C557.592 109.569 586.116 98.558 613.181 87.8116C640.527 76.8902 666.08 65.7987 693.922 57.1431C706.608 53.1017 720.078 49.538 733.768 46.8021C781.183 36.5738 833.679 31.8701 884.571 35.89C891.296 36.5278 898.021 37.1656 904.466 37.9785C960.391 45.2997 1015.87 66.0938 1044.94 88.2154" stroke="url(#paint12_linear)" stroke-width="0.9792" stroke-miterlimit="10"/>
<path opacity="0.4556" d="M-59.1004 247.553C-55.0191 221.515 -12.3416 189.455 52.2807 165.932C62.6117 162.071 73.7257 158.687 85.1208 155.128C128.172 142.469 177.046 131.975 223.772 125.716C242.227 123.23 260.288 121.312 277.111 120.487C304.7 119.069 329.761 119.227 353.925 119.3C367.717 119.398 381.509 119.496 395.581 119.418C422.83 119.179 453.11 118.016 486.26 114.1C500.506 112.627 514.98 110.369 529.346 106.89C561.163 99.6204 589.238 88.5664 615.969 77.3849C642.98 66.0283 668.479 54.3265 695.986 45.2358C708.506 40.9768 721.975 37.4131 735.612 34.067C782.525 23.1858 835.134 18.0895 885.296 22.2419C892.022 22.8797 898.747 23.5176 905.191 24.3305C960.387 31.7842 1015.47 53.146 1043.92 76.6207" stroke="url(#paint13_linear)" stroke-width="0.9371" stroke-miterlimit="10"/>
<path opacity="0.4444" d="M-51.8954 240.167C-48.029 211.689 -5.6799 177.581 58.3866 152.794C68.7176 148.933 79.778 144.939 90.892 141.555C133.441 128.243 182.315 117.75 228.647 112.058C247.269 109.79 264.768 108.222 281.758 107.615C309.234 106.59 334.067 107.533 358.118 107.998C371.796 108.489 385.474 108.979 399.714 109.119C427.016 109.49 456.902 108.895 489.938 105.372C504.184 103.899 518.658 101.64 532.743 98.3369C564.112 91.0244 592.301 79.5778 618.529 67.7435C645.206 55.9517 670.651 43.6397 697.824 34.1138C710.456 29.4621 723.758 25.6808 737.395 22.3347C784.087 10.6257 836.248 5.48699 885.962 9.59682C892.687 10.2347 898.964 10.83 905.576 11.8605C960.491 19.4893 1014.45 41.5512 1042.11 66.1613" stroke="url(#paint14_linear)" stroke-width="0.895" stroke-miterlimit="10"/>
<path opacity="0.4333" d="M-45.3062 232.522C-41.6546 201.602 0.198729 165.228 63.7095 139.179C74.1541 134.925 84.9334 131.106 96.1611 127.33C138.656 113.407 186.801 103.046 232.571 97.7049C250.912 95.6119 268.578 94.2616 285.287 93.8292C312.65 93.1968 337.537 94.7503 361.36 96.0011C374.924 96.8842 388.77 97.5921 402.896 98.1251C429.971 99.2809 460.024 98.9037 492.498 95.7304C506.744 94.2575 520.937 92.1743 535.022 88.8707C566.391 81.5583 593.797 69.634 619.858 57.5821C646.2 45.3551 671.311 32.608 698.262 22.2542C710.895 17.6026 723.862 13.386 737.332 9.82232C783.689 -2.32183 835.796 -8.07075 885.061 -4.00344C891.619 -3.58318 898.064 -2.77035 904.676 -1.73985C959.309 6.06402 1012.43 28.6513 1039.02 54.5719" stroke="url(#paint15_linear)" stroke-width="0.8529" stroke-miterlimit="10"/>
<path opacity="0.4222" d="M-39.279 225.227C-35.8422 191.866 5.68259 153.444 68.6375 126.131C78.9148 121.66 89.5268 117.623 100.754 113.847C142.915 99.4894 190.444 88.8684 236.1 83.9196C254.442 81.8265 271.826 80.6513 288.422 80.6115C315.671 80.3718 340.163 82.493 364.207 84.5717C377.939 85.6723 391.39 86.948 405.403 87.8736C432.364 89.4221 462.357 90.0477 494.831 86.8745C508.796 85.5766 522.989 83.4936 537.074 80.1899C567.995 72.835 595.514 60.518 621.24 48.0309C647.248 35.3688 672.137 21.7937 698.921 11.2224C711.387 6.35318 724.187 1.91917 737.937 -1.81961C784.073 -14.7916 835.565 -20.8007 884.549 -16.5583C891.107 -16.138 897.552 -15.3252 903.715 -14.3372C958.068 -6.35823 1009.9 16.7117 1036.14 43.8103" stroke="url(#paint16_linear)" stroke-width="0.8108" stroke-miterlimit="10"/>
<path opacity="0.4111" d="M-33.8676 217.672C-30.6456 181.87 10.3833 141.182 73.2308 112.649C83.3408 107.96 93.9527 103.923 105.013 99.9294C146.839 85.1366 194.2 74.298 239.295 69.6994C257.355 67.7814 274.907 66.8237 291.389 67.1766C318.524 67.3295 343.07 70.0609 367.168 72.7498C380.786 74.2431 394.404 75.7364 408.304 77.0546C435.319 79.2134 464.917 80.4067 497.11 77.4085C511.075 76.1107 524.987 74.2026 538.905 70.6814C569.658 63.1089 596.729 50.7494 622.402 37.6521C648.355 24.3797 672.91 10.3695 699.359 -0.637014C711.657 -5.72385 724.738 -10.3329 737.873 -14.3318C783.674 -27.739 834.831 -34.1834 883.367 -29.9835C889.925 -29.5633 896.37 -28.7503 902.533 -27.7623C956.324 -19.4333 1007.59 3.98667 1032.77 32.3958" stroke="url(#paint17_linear)" stroke-width="0.7687" stroke-miterlimit="10"/>
<path opacity="0.4" d="M-28.737 210.291C-25.5625 172.266 14.9707 129.312 77.2625 99.5162C87.205 94.6094 97.9306 90.1803 108.991 86.1864C150.315 70.7409 197.395 60.0773 242.208 55.6537C259.988 53.9107 277.426 53.3458 294.189 53.5236C321.211 54.0692 345.53 57.5859 369.514 60.6675C383.018 62.5534 396.523 64.4393 410.757 66.1927C437.545 69.1368 467.477 70.7653 499.108 68.1172C512.793 66.9945 526.985 64.9114 540.622 61.5652C571.094 54.1677 597.831 41.373 623.169 27.8405C648.787 14.133 673.008 -0.312428 699.403 -11.9292C711.534 -17.2336 724.448 -22.0603 737.863 -26.2343C783.444 -40.4692 834.433 -47.1311 882.521 -42.9738C888.798 -42.3784 895.242 -41.5656 901.687 -40.7527C955.196 -32.2485 1005.62 -8.30339 1030.01 21.2411" stroke="url(#paint18_linear)" stroke-width="0.7266" stroke-miterlimit="10"/>
<path opacity="0.3889" d="M-24.7844 203.001C-21.8247 162.535 18.2126 117.315 79.9486 86.2561C89.8911 81.3493 100.449 76.7026 111.342 72.4911C152.332 56.6104 198.796 45.6867 243.663 41.8733C261.443 40.1303 278.6 39.7404 295.249 40.3109C322.157 41.2491 346.53 45.3761 370.287 49.243C383.958 51.3465 397.517 53.8427 411.469 55.7712C438.311 59.3255 467.849 61.5218 499.199 59.0487C512.884 57.926 526.795 56.0179 540.432 52.6718C570.737 45.0567 597.306 32.0444 622.309 18.0768C647.593 3.93402 671.76 -11.1216 697.934 -23.5662C710.178 -29.2633 722.644 -34.1325 735.892 -38.524C780.97 -53.4118 831.792 -60.2913 879.599 -55.9589C885.876 -55.3636 892.321 -54.5507 898.484 -53.5627C951.713 -44.8836 1001.01 -20.2381 1024.78 10.6594" stroke="url(#paint19_linear)" stroke-width="0.6845" stroke-miterlimit="10"/>
<path opacity="0.3778" d="M-21.28 195.668C-18.5351 152.761 21.1737 105.493 82.3539 73.1707C92.1291 68.0463 102.52 63.182 113.413 58.9705C154.067 42.6547 200.365 31.5135 244.67 28.0502C262.335 26.6999 279.493 26.31 295.861 27.0555C322.374 28.5615 347.082 33.1237 370.892 37.6008C384.45 40.097 397.895 42.9858 412.015 45.1318C438.629 49.4714 468.221 52.2779 499.571 49.8049C513.256 48.6822 526.886 46.9492 540.356 43.3855C570.38 35.9455 596.447 22.2804 621.396 7.70247C646.346 -6.87544 670.291 -22.7589 696.298 -35.421C708.375 -41.3357 720.954 -46.5976 734.202 -50.9891C779.227 -66.4871 829.266 -73.8443 876.792 -69.3368C883.069 -68.7415 889.513 -67.9286 895.677 -66.9406C948.009 -58.3464 996.631 -32.9582 1019.61 -0.925159" stroke="url(#paint20_linear)" stroke-width="0.6424" stroke-miterlimit="10"/>
<path opacity="0.3667" d="M-18.3912 188.075C-15.8612 142.727 23.3518 93.1929 84.1436 59.8255C93.7514 54.4835 104.142 49.6193 115.149 45.0151C155.301 28.0465 201.317 17.0803 245.341 13.7921C263.007 12.4418 279.884 12.227 296.306 13.5828C322.873 15.699 347.018 20.6113 370.882 25.6986C384.327 28.5875 397.939 31.6939 411.945 34.2326C438.613 39.1825 468.091 42.3817 498.879 40.2588C512.283 39.3111 526.194 37.403 539.664 33.8393C569.52 26.1817 595.42 12.299 619.754 -2.53899C644.368 -17.5521 668.26 -34.0457 693.932 -47.143C705.842 -53.2753 718.254 -58.7547 731.335 -63.3639C775.857 -79.5146 826.01 -87.2645 873.087 -82.7996C879.364 -82.2042 885.36 -81.4338 891.524 -80.4458C944.023 -71.6341 991.522 -45.5456 1013.71 -12.3771" stroke="url(#paint21_linear)" stroke-width="0.6003" stroke-miterlimit="10"/>
<path opacity="0.3556" d="M-16.5129 180.789C-14.1977 133 24.6868 81.4181 85.2039 46.6127C94.9253 40.8781 105.149 35.7962 115.874 31.3671C155.525 13.7457 201.093 2.73697 244.555 -0.201068C261.939 -1.37628 278.983 -1.37356 295.124 0.157274C321.578 2.66615 345.776 8.18873 369.413 14.0614C382.912 17.5605 396.524 20.6669 410.417 23.5982C437.138 29.1583 466.222 32.9252 496.896 31.195C510.299 30.2473 523.93 28.5143 537.4 24.9506C566.808 17.2505 592.54 3.1503 616.82 -12.298C641.381 -27.9213 664.657 -44.6751 690.276 -58.3827C702.018 -64.7325 714.711 -70.3871 727.624 -75.2138C772.093 -91.9748 821.63 -99.9848 868.259 -95.5624C874.536 -94.967 880.532 -94.1967 886.696 -93.2087C938.633 -84.0468 985.402 -57.8258 1006.69 -23.1293" stroke="url(#paint22_linear)" stroke-width="0.5582" stroke-miterlimit="10"/>
<path opacity="0.3444" d="M-15.5312 173.419C-13.4309 123.189 24.9578 69.3409 84.919 33.2725C94.6405 27.5379 104.697 22.2384 115.088 17.3741C154.852 -0.639961 199.804 -11.9087 243.152 -14.4541C260.256 -15.4542 277.186 -15.0589 293.327 -13.528C319.667 -10.6265 343.638 -4.3187 367.329 2.16421C380.995 5.88088 394.212 9.55507 407.991 12.8791C434.486 19.2245 463.623 23.6016 494.13 21.6538C507.42 21.0987 520.883 19.1482 534.185 15.3668C563.593 7.66672 588.71 -6.69355 612.936 -22.7521C637.162 -38.8106 660.384 -56.1747 685.669 -70.3174C697.243 -76.8848 709.769 -82.757 722.515 -87.8013C766.482 -105.215 816.132 -113.618 862.313 -109.238C868.59 -108.642 874.586 -107.872 880.469 -106.709C932.125 -97.3721 977.77 -70.4508 998.264 -34.6188" stroke="url(#paint23_linear)" stroke-width="0.5161" stroke-miterlimit="10"/>
<path opacity="0.3333" d="M-15.4464 165.964C-13.5609 113.293 24.4993 57.3964 83.9048 20.065C93.4589 14.1127 103.348 8.59567 113.739 3.73139C153.001 -14.9354 197.672 -26.0291 240.906 -28.1819C258.01 -29.182 274.659 -28.6116 290.854 -26.4705C317.08 -23.1763 341.105 -16.2583 364.85 -9.16515C378.402 -5.05584 391.954 -0.946518 405.619 2.77015C432 9.50818 461.191 14.4956 491.303 13.1155C504.593 12.5604 517.775 10.7849 531.077 7.00361C560.037 -0.739037 585.267 -15.492 608.878 -31.8106C632.77 -48.3043 655.771 -66.4962 680.72 -81.0741C692.409 -88.0342 704.486 -93.9489 717.346 -99.3858C761.091 -117.627 810.126 -126.29 856.026 -121.735C862.303 -121.14 868.299 -120.369 874.181 -119.206C925.556 -109.694 970.359 -82.2479 990.063 -45.2806" stroke="url(#paint24_linear)" stroke-width="0.474" stroke-miterlimit="10"/>
<path opacity="0.3222" d="M-16.0909 158.641C-14.4202 103.529 23.4253 45.1913 82.1614 6.98947C91.5481 0.819664 101.437 -4.69736 111.942 -9.95429C150.869 -29.0563 195.091 -40.1926 238.045 -42.1703C254.868 -42.9954 271.685 -42.2073 287.598 -39.8912C313.711 -36.2044 337.509 -28.5009 361.139 -21.0151C374.578 -16.5131 388.016 -12.0112 401.849 -8.07691C428.002 -0.553554 457.247 5.04406 486.911 3.62143C499.92 3.24146 513.383 1.29085 526.404 -2.31539C555.197 -10.2756 579.811 -25.2887 603.535 -42C627.092 -58.9289 649.759 -77.5559 674.654 -92.7441C686.176 -99.9217 698.366 -106.229 710.945 -111.491C754.356 -130.168 803.056 -139.266 848.508 -134.753C854.504 -133.983 860.5 -133.212 866.382 -132.049C917.309 -122.58 961.436 -94.3906 980.07 -56.1126" stroke="url(#paint25_linear)" stroke-width="0.4319" stroke-miterlimit="10"/>
<path opacity="0.3111" d="M-18.0804 151.19C-16.4572 93.8549 20.8923 33.2514 79.3536 -6.38841C88.573 -12.7758 98.5755 -18.6855 108.799 -23.7674C147.392 -43.3046 191.279 -54.876 233.839 -56.286C250.829 -56.8934 267.364 -55.9304 282.997 -53.4392C308.996 -49.3597 332.68 -41.2636 356.251 -32.7749C369.857 -28.0553 383.181 -23.1607 396.901 -18.8338C423.108 -10.7002 451.958 -4.53479 481.508 -5.56477C494.517 -5.94474 507.699 -7.72029 520.553 -11.5441C549.345 -19.5044 573.625 -34.9526 597.015 -52.0991C620.518 -69.6382 642.85 -88.7004 667.41 -104.324C678.932 -111.501 690.955 -118.026 703.48 -123.898C746.67 -143.403 795.203 -152.719 840.206 -148.249C846.202 -147.478 852.198 -146.708 858.08 -145.545C908.726 -135.9 951.729 -107.011 969.741 -67.3797" stroke="url(#paint26_linear)" stroke-width="0.3898" stroke-miterlimit="10"/>
<path opacity="0.3" d="M-20.7996 143.872C-19.3912 84.0962 17.4626 21.2269 75.3681 -19.676C133.274 -60.5789 210.826 -78.6399 277.386 -66.6793C317.893 -59.4083 353.203 -42.141 390.942 -29.2828C428.68 -16.4247 471.764 -8.50602 513.859 -20.2476C570.547 -36.2531 610.423 -83.3037 659.156 -115.596C709.295 -148.763 773.055 -166.922 830.78 -161.044C888.505 -155.166 938.843 -123.765 957.954 -78.3818" stroke="url(#paint27_linear)" stroke-width="0.3477" stroke-miterlimit="10"/>
</g>
</g>
<defs>
<linearGradient id="paint0_linear" x1="0" y1="180" x2="812.95" y2="-337.698" gradientUnits="userSpaceOnUse">
<stop stop-color="$dark"/>
<stop offset="1" stop-color="#385992"/>
</linearGradient>
<linearGradient id="paint1_linear" x1="0" y1="180" x2="812.95" y2="-337.698" gradientUnits="userSpaceOnUse">
<stop stop-color="$dark"/>
<stop offset="1" stop-color="#385992"/>
</linearGradient>
<linearGradient id="paint2_linear" x1="4.49638" y1="547.485" x2="821.14" y2="-80.6269" gradientUnits="userSpaceOnUse">
<stop stop-color="white" stop-opacity="0.2"/>
<stop offset="1" stop-color="white" stop-opacity="0.05"/>
</linearGradient>
<linearGradient id="paint3_linear" x1="11.8038" y1="535.369" x2="824.269" y2="-89.5286" gradientUnits="userSpaceOnUse">
<stop stop-color="white" stop-opacity="0.2"/>
<stop offset="1" stop-color="white" stop-opacity="0.05"/>
</linearGradient>
<linearGradient id="paint4_linear" x1="18.909" y1="523.531" x2="827.718" y2="-98.5548" gradientUnits="userSpaceOnUse">
<stop stop-color="white" stop-opacity="0.2"/>
<stop offset="1" stop-color="white" stop-opacity="0.05"/>
</linearGradient>
<linearGradient id="paint5_linear" x1="25.9087" y1="511.555" x2="832.106" y2="-108.521" gradientUnits="userSpaceOnUse">
<stop stop-color="white" stop-opacity="0.2"/>
<stop offset="1" stop-color="white" stop-opacity="0.05"/>
</linearGradient>
<linearGradient id="paint6_linear" x1="32.7606" y1="499.388" x2="834.518" y2="-117.274" gradientUnits="userSpaceOnUse">
<stop stop-color="white" stop-opacity="0.2"/>
<stop offset="1" stop-color="white" stop-opacity="0.05"/>
</linearGradient>
<linearGradient id="paint7_linear" x1="38.8325" y1="487.287" x2="836.934" y2="-126.563" gradientUnits="userSpaceOnUse">
<stop stop-color="white" stop-opacity="0.2"/>
<stop offset="1" stop-color="white" stop-opacity="0.05"/>
</linearGradient>
<linearGradient id="paint8_linear" x1="44.8431" y1="475.106" x2="839.027" y2="-135.731" gradientUnits="userSpaceOnUse">
<stop stop-color="white" stop-opacity="0.2"/>
<stop offset="1" stop-color="white" stop-opacity="0.05"/>
</linearGradient>
<linearGradient id="paint9_linear" x1="50.75" y1="463.331" x2="841.277" y2="-144.694" gradientUnits="userSpaceOnUse">
<stop stop-color="white" stop-opacity="0.2"/>
<stop offset="1" stop-color="white" stop-opacity="0.05"/>
</linearGradient>
<linearGradient id="paint10_linear" x1="56.3107" y1="451.106" x2="842.66" y2="-153.705" gradientUnits="userSpaceOnUse">
<stop stop-color="white" stop-opacity="0.2"/>
<stop offset="1" stop-color="white" stop-opacity="0.05"/>
</linearGradient>
<linearGradient id="paint11_linear" x1="60.9332" y1="438.742" x2="843.365" y2="-163.056" gradientUnits="userSpaceOnUse">
<stop stop-color="white" stop-opacity="0.2"/>
<stop offset="1" stop-color="white" stop-opacity="0.05"/>
</linearGradient>
<linearGradient id="paint12_linear" x1="65.5461" y1="426.906" x2="844.583" y2="-172.281" gradientUnits="userSpaceOnUse">
<stop stop-color="white" stop-opacity="0.2"/>
<stop offset="1" stop-color="white" stop-opacity="0.05"/>
</linearGradient>
<linearGradient id="paint13_linear" x1="69.418" y1="414.647" x2="845.06" y2="-181.929" gradientUnits="userSpaceOnUse">
<stop stop-color="white" stop-opacity="0.2"/>
<stop offset="1" stop-color="white" stop-opacity="0.05"/>
</linearGradient>
<linearGradient id="paint14_linear" x1="73.2138" y1="402.829" x2="844.677" y2="-190.533" gradientUnits="userSpaceOnUse">
<stop stop-color="white" stop-opacity="0.2"/>
<stop offset="1" stop-color="white" stop-opacity="0.05"/>
</linearGradient>
<linearGradient id="paint15_linear" x1="75.9189" y1="390.134" x2="843.203" y2="-200.014" gradientUnits="userSpaceOnUse">
<stop stop-color="white" stop-opacity="0.2"/>
<stop offset="1" stop-color="white" stop-opacity="0.05"/>
</linearGradient>
<linearGradient id="paint16_linear" x1="78.3066" y1="378.106" x2="841.674" y2="-209.028" gradientUnits="userSpaceOnUse">
<stop stop-color="white" stop-opacity="0.2"/>
<stop offset="1" stop-color="white" stop-opacity="0.05"/>
</linearGradient>
<linearGradient id="paint17_linear" x1="79.8997" y1="365.587" x2="839.611" y2="-218.736" gradientUnits="userSpaceOnUse">
<stop stop-color="white" stop-opacity="0.2"/>
<stop offset="1" stop-color="white" stop-opacity="0.05"/>
</linearGradient>
<linearGradient id="paint18_linear" x1="81.365" y1="353.441" x2="837.942" y2="-228.471" gradientUnits="userSpaceOnUse">
<stop stop-color="white" stop-opacity="0.2"/>
<stop offset="1" stop-color="white" stop-opacity="0.05"/>
</linearGradient>
<linearGradient id="paint19_linear" x1="81.429" y1="341.095" x2="833.828" y2="-237.603" gradientUnits="userSpaceOnUse">
<stop stop-color="white" stop-opacity="0.2"/>
<stop offset="1" stop-color="white" stop-opacity="0.05"/>
</linearGradient>
<linearGradient id="paint20_linear" x1="80.9078" y1="328.528" x2="829.954" y2="-247.592" gradientUnits="userSpaceOnUse">
<stop stop-color="white" stop-opacity="0.2"/>
<stop offset="1" stop-color="white" stop-opacity="0.05"/>
</linearGradient>
<linearGradient id="paint21_linear" x1="79.7952" y1="315.733" x2="825.313" y2="-257.673" gradientUnits="userSpaceOnUse">
<stop stop-color="white" stop-opacity="0.2"/>
<stop offset="1" stop-color="white" stop-opacity="0.05"/>
</linearGradient>
<linearGradient id="paint22_linear" x1="77.7376" y1="303.33" x2="819.603" y2="-267.267" gradientUnits="userSpaceOnUse">
<stop stop-color="white" stop-opacity="0.2"/>
<stop offset="1" stop-color="white" stop-opacity="0.05"/>
</linearGradient>
<linearGradient id="paint23_linear" x1="74.412" y1="290.359" x2="812.67" y2="-277.463" gradientUnits="userSpaceOnUse">
<stop stop-color="white" stop-opacity="0.2"/>
<stop offset="1" stop-color="white" stop-opacity="0.05"/>
</linearGradient>
<linearGradient id="paint24_linear" x1="70.658" y1="277.913" x2="805.641" y2="-287.39" gradientUnits="userSpaceOnUse">
<stop stop-color="white" stop-opacity="0.2"/>
<stop offset="1" stop-color="white" stop-opacity="0.05"/>
</linearGradient>
<linearGradient id="paint25_linear" x1="65.8921" y1="265.231" x2="797.259" y2="-297.291" gradientUnits="userSpaceOnUse">
<stop stop-color="white" stop-opacity="0.2"/>
<stop offset="1" stop-color="white" stop-opacity="0.05"/>
</linearGradient>
<linearGradient id="paint26_linear" x1="59.8236" y1="252.478" x2="788.357" y2="-307.865" gradientUnits="userSpaceOnUse">
<stop stop-color="white" stop-opacity="0.2"/>
<stop offset="1" stop-color="white" stop-opacity="0.05"/>
</linearGradient>
<linearGradient id="paint27_linear" x1="52.8737" y1="239.659" x2="778.105" y2="-318.144" gradientUnits="userSpaceOnUse">
<stop stop-color="white" stop-opacity="0.2"/>
<stop offset="1" stop-color="white" stop-opacity="0.05"/>
</linearGradient>
<clipPath id="clip0">
<rect width="1028" height="180" fill="white"/>
</clipPath>
</defs>
</svg>
