<svg width="28" height="29" viewBox="0 0 28 29" fill="none" xmlns="http://www.w3.org/2000/svg">
    <path d="M2.078 19.17C4.64901 25.1104 11.1998 28.2529 17.442 26.5405C23.6842 24.8281 27.7145 18.7829 26.8946 12.3622V12.3119" stroke="white" stroke-width="2" stroke-linecap="round" stroke-linejoin="round"/>
    <path d="M1.10544 15.6152V15.6152C1.10544 15.4699 1.08868 15.3274 1.05514 15.1876C0.495358 9.10535 4.24691 3.45413 10.0694 1.60875C15.892 -0.236634 22.2138 2.22194 25.2597 7.51627C25.4358 7.91032 25.746 8.55588 25.8801 8.9667" stroke="white" stroke-width="2" stroke-linecap="round" stroke-linejoin="round"/>
    <path d="M5.39795 19.0191H2.02759" stroke="white" stroke-width="2" stroke-linecap="round" stroke-linejoin="round"/>
    <path d="M25.7124 8.95831H22.1827" stroke="white" stroke-width="2" stroke-linecap="round" stroke-linejoin="round"/>
    <path d="M16.57 11.29C13.41 9.03001 12.07 11.22 12.28 12.43C12.49 13.64 13.96 13.86 14.57 13.95C18.91 14.57 16.3 19.71 12 16.52" stroke="white" stroke-width="2" stroke-linecap="round" stroke-linejoin="round"/>
    <path d="M14.28 9V10.11" stroke="white" stroke-width="2" stroke-linecap="round" stroke-linejoin="round"/>
    <path d="M14.28 17.57V19" stroke="white" stroke-width="2" stroke-linecap="round" stroke-linejoin="round"/>
</svg>
