<svg width="26" height="30" viewBox="0 0 26 30" fill="none" xmlns="http://www.w3.org/2000/svg">
    <path d="M1.36792 7.05945H9.62043" stroke="white" stroke-width="2" stroke-linecap="round" stroke-linejoin="round"/>
    <path d="M3.24326 5.06384L1.12012 7.18699" stroke="white" stroke-width="2" stroke-linecap="round" stroke-linejoin="round"/>
    <path d="M3.24326 9.31013L1.12012 7.18698" stroke="white" stroke-width="2" stroke-linecap="round" stroke-linejoin="round"/>
    <path d="M25.0001 22.7092H15.9973" stroke="white" stroke-width="2" stroke-linecap="round" stroke-linejoin="round"/>
    <path d="M22.877 24.8249L25.0001 22.7092" stroke="white" stroke-width="2" stroke-linecap="round" stroke-linejoin="round"/>
    <path d="M22.877 20.5861L25.0001 22.7092" stroke="white" stroke-width="2" stroke-linecap="round" stroke-linejoin="round"/>
    <path fill-rule="evenodd" clip-rule="evenodd" d="M17.1226 16.4373C21.266 16.4373 24.6249 13.0784 24.6249 8.93502C24.6249 4.79163 21.266 1.43274 17.1226 1.43274C12.9792 1.43274 9.62036 4.79163 9.62036 8.93502C9.62036 13.0784 12.9792 16.4373 17.1226 16.4373Z" stroke="white" stroke-width="1.93" stroke-linecap="round" stroke-linejoin="round"/>
    <path d="M15.9073 19.3782C16.3906 22.4101 14.9778 25.4306 12.3407 27.0029C9.70373 28.5753 6.37479 28.3823 3.93721 26.5156C1.49963 24.649 0.445411 21.4855 1.27596 18.5297C2.1065 15.574 4.65417 13.4226 7.70726 13.0988" stroke="white" stroke-width="1.93" stroke-linecap="round" stroke-linejoin="round"/>
</svg>
