<svg width="82" height="34" viewBox="0 0 82 34" fill="none" xmlns="http://www.w3.org/2000/svg">
    <path d="M3.09704 13.1026L3.28762 12.9268L3.47821 12.7629C3.74027 12.552 4.00232 12.3529 4.2882 12.1889C4.35967 12.142 4.43114 12.1069 4.50261 12.06C4.57408 12.0132 4.63364 11.9663 4.70511 11.9312C4.77658 11.8843 4.84805 11.8492 4.93143 11.814L4.97908 11.8492C5.0029 11.8257 5.01482 11.8023 5.03864 11.7672C5.07437 11.7555 5.11011 11.732 5.13393 11.7203C5.74143 11.4509 6.43231 11.2401 7.12318 11.0643C7.82597 10.8886 8.54067 10.7481 9.25537 10.6192C10.6967 10.3615 12.1618 10.1858 13.627 10.0218C16.5691 9.71726 19.5232 9.54155 22.4892 9.42441C25.4553 9.31899 28.4213 9.27213 31.3873 9.30728V9.19014C28.4213 9.01443 25.4553 8.90901 22.4773 8.86215C19.4994 8.82701 16.5215 8.85044 13.5436 9.01443C12.0546 9.09643 10.5657 9.21357 9.06479 9.40099C8.31435 9.4947 7.56392 9.61184 6.81348 9.7524C6.74201 9.76412 6.68245 9.77583 6.61098 9.79926C7.58774 8.7333 8.6717 7.76105 9.85096 6.88252C11.733 5.47686 13.8175 4.32891 15.9974 3.41523C17.0933 2.95839 18.213 2.57183 19.3446 2.25556C19.9163 2.10328 20.4881 1.96271 21.0598 1.85729L21.4887 1.78701C21.6316 1.76358 21.7745 1.74015 21.9175 1.72844C22.1915 1.6933 22.5012 1.66987 22.799 1.63473C24.002 1.51759 25.1932 1.43559 26.3963 1.38874C27.3373 1.3536 28.1949 1.31845 29.1121 1.57616C29.5648 1.70501 30.2557 2.06814 30.6249 2.38441C31.3635 3.01696 32.0424 3.74322 32.6976 4.48119C33.0192 4.85603 33.3527 5.23087 33.6743 5.60571C33.9959 5.99227 34.3056 6.37882 34.6153 6.76538C35.2228 7.52678 36.6165 9.3307 36.7714 9.4947C36.7714 9.4947 38.1412 9.56498 38.3794 9.5767C38.844 9.58841 39.3205 9.60012 39.785 9.61184C40.7141 9.63526 41.6432 9.64698 42.5723 9.64698C43.5015 9.65869 44.4306 9.65869 45.3597 9.65869C46.2888 9.65869 47.2179 9.65869 48.147 9.64698L50.9343 9.61184L52.3161 9.60012H53.6979C55.5442 9.62355 57.3905 9.68212 59.2368 9.77583C61.0831 9.86954 62.9294 9.99839 64.7638 10.1507C66.6101 10.303 68.4445 10.4787 70.2908 10.6778C73.9715 11.0878 77.6522 11.5446 81.3091 12.1303L81.333 12.0132C79.5224 11.6266 77.6999 11.2869 75.8655 10.9589C74.043 10.6309 72.2086 10.3381 70.3742 10.0687C68.5398 9.79926 66.6935 9.55327 64.8591 9.3307C63.0128 9.10814 61.1665 8.92072 59.3082 8.76844C57.45 8.61616 55.5918 8.48731 53.7336 8.40531L52.3399 8.35846L50.9462 8.32332L48.1708 8.28818L42.62 8.21789C41.6909 8.20618 40.7737 8.19446 39.8446 8.15932C39.38 8.14761 38.9274 8.1359 38.4628 8.11247C38.2365 8.10075 38.0102 8.08904 37.7838 8.07732C37.6766 8.06561 37.5694 8.06561 37.4622 8.0539C36.95 7.28079 36.4021 6.55453 35.8184 5.83999C35.4968 5.44172 35.1633 5.04345 34.8178 4.65689C34.4724 4.27034 34.127 3.89549 33.7577 3.52065C33.0192 2.78268 32.2449 2.07985 31.3754 1.47073C31.3039 1.42388 31.2443 1.37702 31.1729 1.33017C33.2098 1.3536 35.2467 1.41217 37.2955 1.49416L39.106 1.56444L40.0113 1.59959L40.9047 1.63473C42.0959 1.6933 43.2751 1.82215 44.4544 2.033C46.8129 2.43127 49.1238 3.11067 51.3393 4.04777C51.6133 4.16491 51.8873 4.29376 52.1612 4.4109C52.4352 4.53975 52.7092 4.65689 52.9712 4.79746C53.5073 5.05516 54.0433 5.34801 54.5674 5.64085C55.0915 5.9337 55.6037 6.24997 56.104 6.57796C56.6043 6.90595 57.1046 7.25736 57.5691 7.6322L57.6525 7.5502C57.1999 7.14022 56.7234 6.76538 56.2469 6.40225C55.7586 6.03912 55.2583 5.69942 54.7461 5.35972C54.2339 5.03174 53.7217 4.71546 53.1856 4.4109C52.9236 4.25862 52.6496 4.11806 52.3876 3.96578C52.1136 3.82521 51.8515 3.68464 51.5776 3.55579C49.3858 2.47812 47.063 1.63473 44.6569 1.08418C43.4538 0.803049 42.2388 0.603912 41 0.463346L40.0709 0.381352L39.1656 0.334493L37.3431 0.240784C34.9131 0.123646 32.4831 0.0299357 30.0413 0.00650805C28.8143 -0.00520577 27.5994 -0.0052072 26.3725 0.0416481C25.1456 0.0767895 23.9187 0.158789 22.7037 0.264213C22.394 0.287641 22.1081 0.311066 21.7745 0.346208C21.6197 0.369636 21.4529 0.393063 21.2981 0.404777L20.8335 0.486775C20.2141 0.603913 19.6066 0.74448 18.9991 0.908473C17.796 1.23646 16.6168 1.63473 15.4733 2.11499C13.1862 3.0521 10.9945 4.25862 8.99332 5.72285C7.11127 7.10508 4.15718 9.9164 3.41865 10.6309C2.60866 11.4041 1.53661 12.9971 1.17926 13.6765C0.821905 14.3676 0.547937 15.0822 0.35735 15.8084C0.166764 16.5347 0.035735 17.2727 0 18.0224L0.119117 18.0341C0.583672 16.6518 1.25073 15.3399 2.10837 14.2388C2.32278 13.9577 2.5491 13.7 2.78733 13.454C2.84689 13.3954 2.90645 13.3251 2.96601 13.2665C2.96601 13.2197 3.02557 13.1611 3.09704 13.1026ZM39.4872 10.9824C35.9614 11.0526 32.4355 11.1112 28.9216 11.2635C28.0401 11.2986 27.1586 11.3455 26.2891 11.3923L23.6566 11.5446C21.8937 11.65 20.1426 11.7672 18.3916 11.9312C16.6406 12.0834 14.9134 12.2826 13.1743 12.5637C11.4471 12.8331 10.8635 13.0088 9.13626 13.2665C8.4692 12.9034 7.26612 12.4583 7.26612 12.4583C8.95758 12.0249 11.2327 11.65 12.9956 11.404C14.7586 11.1581 16.5215 10.9824 18.2963 10.8535C20.0712 10.7364 21.8341 10.6544 23.597 10.5841L26.2414 10.4904C27.1229 10.4669 28.0044 10.4435 28.8977 10.4435C30.6607 10.4201 32.4355 10.4201 34.1984 10.4318C35.9614 10.4318 37.7243 10.4669 39.4872 10.4904C41.2501 10.5255 43.0131 10.5607 44.776 10.6075C46.5389 10.6544 48.3019 10.7129 50.0648 10.7715V10.8886C46.5389 10.8886 43.0131 10.9355 39.4872 10.9824ZM9.32684 17.1321C9.63655 18.4909 9.69611 19.8146 9.62464 21.1382H9.50552C9.49361 20.8102 9.46978 20.4823 9.42214 20.1543C9.3864 19.8263 9.32684 19.51 9.25537 19.182C9.12435 18.5495 8.93376 17.9169 8.64788 17.3547C8.37391 16.7924 7.99274 16.277 7.57583 15.949C7.15892 15.6093 6.70628 15.4805 6.19407 15.4805C5.68187 15.4922 5.24114 15.6327 4.82423 15.9841C4.40732 16.3356 4.03806 16.851 3.776 17.425C3.50203 17.9989 3.32336 18.6315 3.20424 19.264C3.14468 19.5803 3.09704 19.9083 3.04939 20.2363C3.01365 20.5643 2.98983 20.8922 2.98983 21.2202H2.87071C2.79924 19.8966 2.84689 18.5612 3.13277 17.2141C3.20424 16.8744 3.29953 16.5347 3.44247 16.195C3.5735 15.8553 3.75218 15.5273 4.00232 15.211C4.25247 14.9065 4.57408 14.6253 4.96717 14.4379C5.34834 14.2505 5.78908 14.1568 6.19407 14.1568C6.61098 14.1568 7.0398 14.2271 7.43289 14.4028C7.82597 14.5668 8.17141 14.8362 8.42156 15.1408C8.92185 15.7616 9.17199 16.4644 9.32684 17.1321ZM51.3393 18.5378C51.7205 19.346 51.9945 20.1894 52.1374 21.0562L52.0183 21.0797C51.8754 20.6814 51.6848 20.2831 51.4942 19.9083C51.2917 19.5334 51.0773 19.1586 50.8271 18.8189C50.3507 18.1161 49.7908 17.4835 49.1357 16.9798C48.4924 16.4761 47.7539 16.113 47.0035 15.9022C46.2531 15.6796 45.4907 15.5976 44.7045 15.5859C44.3114 15.5859 43.9184 15.6093 43.5253 15.6562C43.1441 15.703 42.7629 15.7733 42.3937 15.8787C42.0244 15.9842 41.6551 16.1247 41.3097 16.3004C40.9643 16.4761 40.6307 16.6987 40.321 16.9564C39.7016 17.4718 39.1894 18.1278 38.7725 18.854C38.3556 19.5803 38.0221 20.3768 37.8077 21.2085L37.6886 21.1968C37.7005 20.3183 37.8791 19.4397 38.1769 18.5963C38.4866 17.7529 38.9274 16.933 39.5468 16.2067C40.1543 15.4805 40.9404 14.8596 41.8457 14.4614C42.2984 14.2622 42.7748 14.1217 43.2513 14.0279C43.7278 13.9342 44.2162 13.8991 44.7045 13.8991C45.1929 13.8991 45.6813 13.9577 46.1578 14.0631C46.6342 14.1685 47.1107 14.3325 47.5514 14.5434C48.4329 14.965 49.1952 15.5859 49.8146 16.277C50.4579 16.9564 50.9582 17.7295 51.3393 18.5378ZM66.3719 14.5199C65.9311 14.0045 65.4309 13.5125 64.8591 13.1026L64.6447 12.9503L64.5375 12.8683L64.4184 12.798L64.192 12.6574L64.0729 12.5871L63.9538 12.5286C63.787 12.4466 63.6322 12.3646 63.4535 12.306C63.2748 12.2474 63.1081 12.1654 62.9294 12.1186C62.2385 11.9312 61.5834 11.8023 60.9044 11.6735C59.5584 11.4275 58.2124 11.2518 56.8544 11.1463C56.1755 11.0995 55.4965 11.0409 54.8056 11.0409C54.4602 11.0409 54.1148 11.0409 53.7574 11.0526C53.5787 11.0643 53.4001 11.0761 53.2095 11.0878C53.0189 11.1112 52.8402 11.1346 52.6139 11.1932C52.5067 11.2283 52.3876 11.2518 52.2089 11.3572C52.1851 11.3689 52.1612 11.3806 52.1374 11.404C52.1136 11.4275 52.0898 11.4392 52.0659 11.4626C52.0064 11.5212 51.9468 11.5915 51.923 11.6383C51.8515 11.7437 51.8158 11.8492 51.792 11.9546C51.7562 12.1654 51.7801 12.3177 51.8039 12.4583C51.8396 12.5989 51.8873 12.7043 51.9349 12.8097C52.0302 13.0206 52.1493 13.1845 52.2684 13.3368C52.3876 13.4891 52.5067 13.6297 52.6377 13.7702C53.1618 14.2974 53.7336 14.7073 54.353 15.0705C55.568 15.785 56.9021 16.2536 58.2719 16.5113C58.9509 16.6401 59.6418 16.7221 60.3327 16.7455C60.6781 16.7573 61.0235 16.7573 61.369 16.7455L62.3815 16.7104L64.3945 16.6401L65.407 16.605L65.9073 16.5933H66.1575H66.2766C66.3004 16.5933 66.3123 16.5933 66.3361 16.5933C66.3242 16.5816 66.3004 16.523 66.3361 16.4878L66.3481 16.5933V16.605H66.3719H66.3838C66.3838 16.605 66.3957 16.605 66.4076 16.5933C66.4553 16.5581 66.4076 16.4644 66.3957 16.4878C66.3838 16.4761 66.3838 16.4878 66.3719 16.4761C66.36 16.4761 66.36 16.4761 66.3481 16.4761C66.3242 16.4761 66.3004 16.4644 66.2766 16.4644L66.1456 16.4527C66.0622 16.441 65.9788 16.441 65.8954 16.4293L65.3951 16.3941C65.0616 16.3707 64.7162 16.3473 64.3826 16.3356C63.7037 16.3004 63.0366 16.2653 62.3576 16.2419L61.3451 16.2067C61.0116 16.195 60.69 16.1716 60.3565 16.1364C59.7013 16.0661 59.0581 15.949 58.4268 15.7733C57.7955 15.6093 57.188 15.3867 56.5924 15.129C56.0087 14.8713 55.437 14.5668 54.9128 14.2154C54.3887 13.8639 53.8884 13.4657 53.4834 13.0323C53.3881 12.9268 53.2928 12.8097 53.2095 12.7043C53.138 12.6106 53.0784 12.5169 53.0427 12.4232C53.1261 12.4114 53.2095 12.3997 53.3048 12.388C53.4596 12.3763 53.6145 12.3646 53.7693 12.3646C54.0909 12.3529 54.4126 12.3646 54.7461 12.3763C55.4012 12.3997 56.0683 12.4349 56.7234 12.4817C58.0456 12.5871 59.3797 12.716 60.69 12.88C61.3451 12.962 62.0122 13.0557 62.6316 13.1845C62.9294 13.2548 63.2153 13.3368 63.5012 13.454L63.6084 13.5008L63.7156 13.5477L63.93 13.6531L64.0372 13.7L64.1444 13.7585L64.3469 13.8757C65.4547 14.5199 66.4553 15.3867 67.3963 16.3238L67.4916 16.2536C67.3367 15.949 67.1461 15.6679 66.9555 15.3867C66.8007 15.047 66.5863 14.7776 66.3719 14.5199ZM53.0189 12.1772C53.0189 12.1654 53.0189 12.1654 53.0189 12.1772V12.1772ZM81.9762 16.605C81.9762 16.9564 81.9762 17.3078 81.9643 17.6709H81.8451C81.8332 17.3195 81.8094 16.9681 81.7737 16.6167C81.7618 16.441 81.7379 16.2653 81.726 16.0896C81.7141 16.0076 81.7022 15.9139 81.6903 15.8319L81.6427 15.5742C81.595 15.2228 81.5354 14.8948 81.4044 14.5902C81.2734 14.2856 81.0947 14.0162 80.8565 13.7937C80.6182 13.5711 80.3205 13.4188 80.0227 13.29C79.8678 13.2314 79.713 13.1728 79.5462 13.1377L79.296 13.0791L79.0459 13.044C78.9625 13.0323 78.8791 13.0206 78.7958 13.0088L78.5337 12.9854C78.355 12.962 78.1883 12.9503 78.0096 12.9386C77.6522 12.9034 77.3068 12.88 76.9494 12.8683C75.532 12.798 74.1145 12.798 72.6851 12.8331C71.9704 12.8448 71.2676 12.88 70.541 12.9151L70.2789 12.9268L70.0288 12.9503C69.862 12.962 69.7071 12.9854 69.5642 13.0088C69.4213 13.0323 69.2783 13.0674 69.1592 13.1143C69.0401 13.1611 68.9448 13.208 68.8852 13.2548C68.8257 13.3017 68.8019 13.3251 68.7899 13.3603C68.7661 13.3954 68.7542 13.4657 68.7542 13.5711C68.7542 13.6765 68.7661 13.7937 68.8019 13.9342C68.8138 14.0045 68.8376 14.0748 68.8614 14.1451C68.8852 14.2154 68.9091 14.2856 68.9448 14.3559C69.0639 14.6371 69.2188 14.9299 69.3974 15.2228C69.4808 15.3633 69.5761 15.5039 69.6714 15.6444C69.7667 15.785 69.862 15.9139 69.9692 16.0427C70.3861 16.5698 70.8626 17.0384 71.3986 17.425C71.9346 17.8232 72.5421 18.1395 73.1735 18.3855C73.3402 18.4441 73.4951 18.5026 73.6618 18.5612L74.1621 18.7018L74.6743 18.8189L74.8053 18.8423L74.9364 18.8657L75.1984 18.9126L75.4605 18.9595L75.7225 18.9946C75.9012 19.018 76.068 19.0415 76.2467 19.0532C76.5921 19.0766 76.9494 19.1 77.3068 19.1C78.0096 19.1117 78.7243 19.0883 79.4271 19.0063C79.7725 18.9595 80.1299 18.9009 80.4753 18.8189L80.7254 18.7486C80.8088 18.7252 80.8922 18.7018 80.9756 18.6666C81.1424 18.608 81.3091 18.5378 81.4521 18.4558L81.5235 18.5495C81.3687 18.6666 81.2019 18.7369 81.0352 18.8189C80.9518 18.854 80.8684 18.8892 80.785 18.9243L80.523 19.018C80.1775 19.1352 79.8202 19.2172 79.4747 19.2874C78.76 19.428 78.0453 19.4983 77.3187 19.5451C76.9614 19.5686 76.5921 19.5686 76.2347 19.5686C76.0561 19.5686 75.8655 19.5569 75.6868 19.5569L75.4128 19.5451L75.1389 19.5217L74.8649 19.4983L74.722 19.4866L74.5909 19.4632L74.043 19.3812L73.4951 19.264C73.3164 19.2289 73.1377 19.1703 72.959 19.1117C72.2443 18.9009 71.5535 18.5963 70.9102 18.1863C70.267 17.7881 69.6833 17.2961 69.1711 16.7338C69.0401 16.5933 68.921 16.4527 68.8019 16.3121C68.6827 16.1716 68.5636 16.0193 68.4564 15.867C68.242 15.5625 68.0157 15.2579 67.8251 14.9065C67.7775 14.8245 67.7298 14.7308 67.6822 14.6371C67.6345 14.5434 67.5988 14.4496 67.563 14.3442C67.4797 14.1451 67.4201 13.9225 67.3963 13.6765C67.3725 13.4305 67.3844 13.1377 67.5035 12.8448C67.6107 12.552 67.837 12.2943 68.0633 12.1303C68.2897 11.9663 68.5279 11.8609 68.7542 11.8023C68.9805 11.732 69.1949 11.6969 69.3974 11.6735C69.5999 11.65 69.8024 11.6383 70.0049 11.6383C70.1002 11.6383 70.1955 11.6383 70.2908 11.6383L70.5648 11.65L72.7208 11.7438C74.1621 11.814 75.6034 11.9195 77.0447 12.0952C77.4021 12.142 77.7594 12.1889 78.1168 12.2474C78.2955 12.2709 78.4741 12.306 78.6528 12.3412L78.9268 12.388C79.0221 12.4114 79.1055 12.4349 79.2008 12.4583L79.4747 12.5286L79.7487 12.6223C79.8321 12.6574 79.9274 12.6809 80.0107 12.716L80.2728 12.8331C80.6063 13.0088 80.9399 13.2197 81.2019 13.5008C81.464 13.782 81.6665 14.1217 81.7856 14.4848C81.9047 14.8479 81.9404 15.211 81.9643 15.5625L81.9881 15.8202C82 15.9139 82 15.9959 82 16.0896C81.9643 16.2536 81.9762 16.4293 81.9762 16.605ZM13.9367 26.0346C14.3178 26.1752 14.6395 26.3509 14.9015 26.6086C15.1755 26.8429 15.3899 27.1357 15.5447 27.4754C15.6996 27.8151 15.7711 28.1899 15.7711 28.6116C15.7711 29.0568 15.6877 29.4433 15.5328 29.783C15.3661 30.1344 15.1278 30.4273 14.842 30.6616C14.5561 30.9076 14.2106 31.095 13.8175 31.2238C13.4245 31.3527 13.0195 31.4112 12.5668 31.4112H10.4942V33.8243H9.24346V25.8472H12.6979C13.1505 25.8472 13.5674 25.9175 13.9367 26.0346ZM12.543 30.357C13.1624 30.357 13.6508 30.2047 14.0081 29.8884C14.3536 29.5956 14.5442 29.1622 14.5442 28.6116C14.5442 28.0728 14.3774 27.6511 14.0439 27.3348C13.7223 27.042 13.2458 26.878 12.6264 26.878H10.4942V30.3453H12.543V30.357ZM22.1438 26.0346C22.525 26.1635 22.8347 26.3392 23.0967 26.5852C23.3588 26.8077 23.5732 27.1006 23.7162 27.4168C23.8591 27.7331 23.9306 28.0962 23.9306 28.4828C23.9306 29.0685 23.7638 29.5487 23.4184 29.9704C23.0848 30.3921 22.6322 30.685 22.0723 30.8607L24.1926 33.8126H22.6917L20.8812 31.1418H18.6656V33.8126H17.4149V25.8355H20.9169C21.3696 25.8472 21.7745 25.9058 22.1438 26.0346ZM20.7978 30.0993C21.3815 30.0993 21.8341 29.9587 22.1915 29.6659C22.525 29.3848 22.7037 28.9865 22.7037 28.4711C22.7037 27.9322 22.5369 27.5457 22.1915 27.2763C21.8579 27.0068 21.4053 26.8663 20.8454 26.8663H18.6775V30.0759H20.7978V30.0993ZM33.4599 26.222C32.912 26.222 32.4236 26.304 31.9709 26.4797C31.5183 26.6554 31.1371 26.9014 30.8036 27.2177C30.482 27.5223 30.2199 27.9088 30.0532 28.3539C29.8626 28.7991 29.7792 29.291 29.7792 29.8299C29.7792 30.3921 29.8626 30.8841 30.0532 31.3293C30.2199 31.7744 30.4939 32.1492 30.8036 32.4655C31.1371 32.7818 31.5183 33.0277 31.9709 33.1917C32.4236 33.3557 32.9001 33.4377 33.4242 33.4377C33.9959 33.4377 34.5081 33.344 34.9965 33.1683C35.4611 32.9926 35.8899 32.7232 36.2949 32.3952L36.6761 32.8169C35.7946 33.6017 34.6868 34 33.3646 34C32.7452 34 32.1615 33.9063 31.6612 33.7189C31.1252 33.5314 30.6964 33.2503 30.3152 32.9106C29.934 32.5592 29.6482 32.1258 29.4576 31.5987C29.2432 31.095 29.1479 30.5093 29.1479 29.8767C29.1479 29.2793 29.2432 28.7288 29.4576 28.2251C29.6482 27.7097 29.9579 27.2763 30.339 26.9014C30.7202 26.5266 31.1967 26.2337 31.7446 26.0229C32.2926 25.812 32.912 25.7066 33.5909 25.7066C33.8411 25.7066 34.1031 25.73 34.3652 25.7769C34.6273 25.8238 34.8893 25.894 35.1514 25.9877C35.3896 26.0697 35.6397 26.1752 35.878 26.304C36.0924 26.4329 36.3187 26.5617 36.4974 26.7257L36.1639 27.1708C35.4015 26.5266 34.5081 26.222 33.4599 26.222ZM42.9297 26.0346C43.2751 26.1517 43.5967 26.3157 43.8469 26.5383C44.097 26.7609 44.3114 27.0303 44.4544 27.3348C44.5973 27.6394 44.6688 27.9908 44.6688 28.3656C44.6688 28.6585 44.6211 28.9513 44.5139 29.2208C44.4067 29.4902 44.2638 29.7362 44.0732 29.9587C43.8945 30.1696 43.6563 30.357 43.4062 30.5093C43.156 30.6616 42.8582 30.767 42.5604 30.8373L44.7998 33.8126H44.0137L41.9172 30.9778H38.9869V33.8243H38.3556V25.8472H41.7743C42.1912 25.8472 42.5723 25.9058 42.9297 26.0346ZM41.6313 30.4273C42.0125 30.4273 42.3341 30.3804 42.6319 30.275C42.9297 30.1696 43.1798 30.029 43.3942 29.8416C43.5848 29.6659 43.7516 29.4316 43.8588 29.1973C43.9779 28.9396 44.0256 28.6585 44.0256 28.3656C44.0256 27.7331 43.8112 27.2411 43.3942 26.9014C42.9535 26.5617 42.3937 26.386 41.679 26.386H38.9869V30.4273H41.6313ZM52.1851 26.3743H47.1226V29.4082H51.5418V29.947H47.1226V33.2737H52.4114V33.8243H46.4913V25.8472H52.1851V26.3743V26.3743ZM58.8675 26.1283C59.3916 26.3274 59.8324 26.6086 60.2135 26.96C60.5947 27.2997 60.8687 27.7331 61.0712 28.2251C61.2737 28.7054 61.369 29.2442 61.369 29.8299C61.369 30.4156 61.2618 30.9427 61.0593 31.4347C60.8568 31.9149 60.5471 32.3366 60.1778 32.6998C59.7966 33.0395 59.344 33.3206 58.8199 33.5197C58.2838 33.7189 57.7002 33.8126 57.0689 33.8126H54.2934V25.8355H57.1046C57.7597 25.8472 58.3553 25.9409 58.8675 26.1283ZM57.0689 33.262C57.6049 33.262 58.0933 33.18 58.534 33.0278C58.9985 32.8755 59.3797 32.6295 59.7013 32.3483C60.0349 32.0438 60.285 31.6807 60.4756 31.259C60.6424 30.8373 60.7377 30.3687 60.7377 29.8299C60.7377 29.2676 60.6543 28.7873 60.4756 28.3539C60.3088 27.9205 60.0587 27.5691 59.7371 27.2646C59.4155 26.9834 59.0224 26.7609 58.5697 26.6203C58.1171 26.468 57.6168 26.3977 57.0569 26.3977H54.9248V33.262H57.0689V33.262ZM63.8228 33.8243H63.1915V25.8472H63.8228V33.8243ZM72.6732 26.386H69.4451V33.8126H68.8138V26.386H65.5857V25.8355H72.6851V26.386H72.6732Z" fill="black"/>
</svg>