<svg width="430" height="289" viewBox="0 0 430 289" fill="none" xmlns="http://www.w3.org/2000/svg">
    <g clip-path="url(#clip0)">
        <path d="M78.4 261.9H354.5C381.5 261.9 405 242.2 408.7 215.4C408.8 214.8 408.9 214.1 408.9 213.5C410.1 201.9 407.7 190.4 398.3 181.5C368 153.1 410.3 116.6 404 91.4C397.7 66.2 375.6 80.7 334.7 41C293.7 1.3 300.1 -20.8 228.9 27.9C171.8 67 103.3 23.5 69.2 40.5C35.2 57.5 69.3 107.8 27.7 162C1.50001 196.2 21.1 227.1 39.2 245.3C45.2 251.3 52.3 255.8 60.1 258.7C65.9 260.9 72.1 261.9 78.4 261.9Z" fill="url(#paint0_linear)"/>
        <path d="M165 32.9L113.2 21.7L132.5 59.2L145.2 49.2L150.2 57.9L151.9 42.1L165 32.9Z" fill="#CFDAEB"/>
        <path d="M150.4 41.4L151.9 42.1L150.2 57.9L145.2 49.2L113.2 21.7L150.4 41.4Z" fill="#A6B8CB"/>
        <path d="M139.5 53.6L150.2 57.9L145.2 49.1L139.5 53.6Z" fill="#C0CEDD"/>
        <path d="M153.8 59.7C153.3 59.2 152.9 58.8 152.5 58.3L152.9 58C153.3 58.5 153.8 58.9 154.2 59.4L153.8 59.7Z" fill="#C0CEDD"/>
        <path d="M290 138.8C288.7 138.7 287.4 138.6 286.2 138.5L286.3 138C287.6 138.1 288.8 138.3 290.1 138.3L290 138.8ZM282.4 137.9C281.1 137.7 279.9 137.5 278.6 137.2L278.7 136.7C279.9 137 281.2 137.2 282.4 137.4V137.9ZM274.9 136.4C273.7 136.1 272.4 135.7 271.2 135.3L271.3 134.8C272.5 135.2 273.7 135.5 275 135.9L274.9 136.4ZM267.6 134.1C266.4 133.7 265.2 133.2 264 132.7L264.2 132.3C265.4 132.8 266.6 133.3 267.8 133.7L267.6 134.1ZM260.5 131.1C259.3 130.6 258.2 130 257.1 129.4L257.3 129C258.4 129.6 259.6 130.2 260.7 130.7L260.5 131.1ZM253.7 127.5C252.6 126.8 251.5 126.2 250.4 125.5L250.7 125.1C251.8 125.8 252.8 126.5 253.9 127.1L253.7 127.5ZM247.3 123.3C246.3 122.6 245.2 121.8 244.2 121L244.5 120.6C245.5 121.4 246.5 122.2 247.5 122.9L247.3 123.3ZM241.3 118.5C240.3 117.7 239.4 116.8 238.5 115.9L238.8 115.6C239.7 116.5 240.7 117.3 241.6 118.2L241.3 118.5ZM235.8 113.2C234.9 112.3 234.1 111.3 233.2 110.3L233.6 110C234.4 111 235.3 111.9 236.1 112.8L235.8 113.2ZM230.8 107.4C230 106.4 229.3 105.3 228.5 104.3L228.9 104C229.6 105 230.4 106.1 231.2 107.1L230.8 107.4ZM226.4 101.1C226.2 100.8 226.1 100.6 225.9 100.3C225.4 99.4 224.9 98.6 224.4 97.8L224.8 97.6C225.3 98.4 225.7 99.3 226.3 100.1C226.5 100.4 226.6 100.6 226.8 100.9L226.4 101.1ZM222.8 94.4C222.2 93.2 221.7 92 221.3 90.9L221.8 90.7C222.2 91.8 222.7 93 223.3 94.2L222.8 94.4ZM220 87.2C219.6 86 219.3 84.7 219.1 83.5L219.6 83.4C219.8 84.6 220.1 85.9 220.5 87.1L220 87.2ZM222.8 80.2V79.7C224.2 79.6 225.4 79.5 226.5 79.2L226.6 79.7C225.5 80 224.2 80.2 222.8 80.2ZM218.9 80.1C217.6 80 216.3 79.8 215.1 79.5L215.2 79C216.3 79.2 217.4 79.4 218.6 79.6C218.6 79.1 218.5 78.5 218.5 78C218.5 77.3 218.5 76.5 218.6 75.8L219.1 75.9C219 76.6 219 77.3 219 78C219 78.5 219 79.1 219.1 79.6H219L218.9 80.1ZM211.4 78.3C210.2 77.8 209 77.2 208 76.5L208.3 76.1C209.3 76.8 210.4 77.4 211.6 77.8L211.4 78.3ZM230.2 78.1L229.9 77.7C230 77.6 230.1 77.6 230.2 77.5C231.1 76.9 231.8 76 232.4 75L232.8 75.2C232.2 76.3 231.4 77.2 230.5 77.9C230.4 78 230.3 78.1 230.2 78.1ZM205 74.1C204.1 73.2 203.3 72.2 202.6 71.1L203 70.8C203.7 71.9 204.5 72.9 205.4 73.7L205 74.1ZM220 72.2L219.5 72C220 70.7 220.7 69.6 221.5 68.7L221.9 69C221.1 69.9 220.4 71 220 72.2ZM233.2 71.5C233.2 70.7 233 69.9 232.6 69.2C232.4 68.8 232.1 68.5 231.8 68.2L232.1 67.9C232.4 68.2 232.7 68.6 232.9 69C233.3 69.7 233.5 70.6 233.6 71.5H233.2ZM178.6 68.2V67.7C179.8 67.7 181.1 67.6 182.4 67.6V68.1C181.1 68.2 179.8 68.2 178.6 68.2ZM174.8 68.1C173.5 68 172.2 67.9 171 67.7L171.1 67.2C172.3 67.4 173.6 67.5 174.9 67.6L174.8 68.1ZM200.6 67.8C200.1 66.7 199.5 65.6 199 64.3L199.4 64.1C199.9 65.4 200.4 66.5 200.9 67.6L200.6 67.8ZM186.3 67.7L186.2 67.2C187.2 67.1 188.2 67 189.2 66.8L190 66.7L190.1 67.2L189.3 67.3C188.2 67.5 187.2 67.6 186.3 67.7ZM225 67L224.8 66.5C226 66.1 227.4 65.9 228.7 66.1L228.6 66.6C227.4 66.5 226.1 66.6 225 67ZM167.2 66.9C165.9 66.6 164.7 66.2 163.5 65.7L163.7 65.2C164.9 65.6 166.1 66 167.3 66.3L167.2 66.9ZM193.8 66.6L193.7 66.1C195 65.8 196.2 65.5 197.4 65.2L197.5 65.7C196.4 66 195.2 66.3 193.8 66.6ZM201.2 64.3L201 63.9C202.2 63.4 203.3 62.7 204.3 62L204.6 62.4C203.5 63.1 202.4 63.8 201.2 64.3ZM160 64.2C158.8 63.6 157.7 62.9 156.7 62.2L157 61.8C158 62.5 159.1 63.2 160.2 63.8L160 64.2ZM197.7 60.7C197.3 59.3 197 58.1 196.8 57L197.3 56.9C197.5 58 197.8 59.2 198.2 60.6L197.7 60.7ZM207.4 59.8L207 59.5C207.8 58.5 208.5 57.5 209.1 56.4L209.5 56.6C209 57.7 208.2 58.8 207.4 59.8ZM197 53.1H196.5C196.5 52.5 196.6 51.9 196.7 51.4C196.8 50.7 197 50 197.2 49.3L197.7 49.5C197.5 50.2 197.3 50.8 197.2 51.5C197.1 52 197 52.5 197 53.1ZM210.8 52.9L210.3 52.8C210.4 52.1 210.5 51.5 210.5 50.8C210.5 50.2 210.4 49.6 210.3 49.1L210.8 49C210.9 49.6 211 50.2 211 50.8C210.9 51.5 210.9 52.2 210.8 52.9ZM199.5 46.2L199.1 45.9C200 44.8 201.1 44.1 202.2 43.6L202.4 44C201.4 44.5 200.4 45.2 199.5 46.2ZM208.9 45.6C208.4 44.8 207.8 44.3 207.1 43.9C206.8 43.7 206.4 43.6 206 43.5L206.1 43C206.5 43.1 206.9 43.2 207.3 43.4C208.1 43.8 208.7 44.4 209.3 45.2L208.9 45.6Z" fill="#C0CEDD"/>
        <path d="M294.6 138.9C294.4 138.9 294.2 138.9 294 138.9V138.4C294.6 138.4 295.3 138.4 295.9 138.4V138.9C295.5 138.9 295 138.9 294.6 138.9Z" fill="#C0CEDD"/>
        <path d="M299 50.9C298.3 50.5 297.6 50.2 296.9 49.9C308.5 57.5 312.5 72.8 305.8 85.2C299.1 97.6 284.1 102.7 271.4 97.2C272 97.6 272.7 98 273.4 98.4C286.5 105.5 302.9 100.6 309.9 87.5C317 74.3 312.1 58 299 50.9Z" fill="#4A5E86"/>
        <path d="M294.9 48.7C281.8 41.6 265.4 46.5 258.4 59.6C251.3 72.7 256.2 89.1 269.3 96.1C282.4 103.2 298.8 98.3 305.8 85.2C312.9 72.1 308 55.8 294.9 48.7ZM272.9 89.5C263.5 84.4 260 72.7 265 63.3C270.1 53.9 281.8 50.4 291.2 55.4C300.6 60.5 304.1 72.2 299.1 81.6C294.1 91 282.3 94.5 272.9 89.5Z" fill="#596E99"/>
        <path d="M262.5 61.8C269.2 49.4 284.2 44.3 296.9 49.9C296.3 49.5 295.6 49.1 294.9 48.7C281.8 41.6 265.4 46.5 258.4 59.6C251.3 72.7 256.2 89.1 269.3 96.1C270 96.5 270.7 96.8 271.4 97.1C259.8 89.6 255.8 74.2 262.5 61.8Z" fill="#596E99"/>
        <path opacity="0.05" d="M291 55.2C281.5 50.3 269.8 54 264.9 63.5C260 73 263.7 84.7 273.2 89.6C282.7 94.5 294.4 90.8 299.3 81.3C304.2 71.8 300.5 60.1 291 55.2Z" fill="white"/>
        <path d="M299.1 63.2L262.8 74C262.5 70.5 263.1 66.9 264.8 63.6L291.6 55.6C294.9 57.4 297.5 60.1 299.1 63.2Z" fill="url(#paint1_linear)"/>
        <path d="M299.3 81.3C299.2 81.5 299.1 81.7 299 81.8L273.1 89.5C268.6 87.2 265.4 83.3 263.8 78.9L300.8 67.8C302 72.3 301.5 77 299.3 81.3Z" fill="url(#paint2_linear)"/>
        <path d="M276.621 95.842L268.083 91.2374L240.123 143.081L248.661 147.686L276.621 95.842Z" fill="#596E99"/>
        <path d="M385.2 81.7V76.6C385.2 75.5 384.3 74.6 383.2 74.6H380.6C379.4 74.6 378.3 73.8 377.9 72.6C377.6 71.7 377.2 70.8 376.8 69.9C376.3 68.8 376.4 67.5 377.3 66.6L379.1 64.8C379.9 64 379.9 62.7 379.1 62L375.5 58.4C374.7 57.6 373.4 57.6 372.7 58.4L370.9 60.2C370 61.1 368.7 61.2 367.6 60.7C366.7 60.3 365.8 59.9 364.9 59.6C363.7 59.2 362.9 58.2 362.9 56.9V54.3C362.9 53.2 362 52.3 360.9 52.3H355.8C354.7 52.3 353.8 53.2 353.8 54.3V57C353.8 58.2 353 59.3 351.8 59.7C350.9 60 350 60.4 349.1 60.8C348 61.3 346.7 61.2 345.8 60.3L344 58.5C343.2 57.7 341.9 57.7 341.2 58.5L337.6 62.1C336.8 62.9 336.8 64.2 337.6 64.9L339.4 66.7C340.3 67.6 340.4 68.9 339.9 70C339.5 70.9 339.1 71.8 338.8 72.7C338.4 73.9 337.4 74.7 336.1 74.7H333.5C332.4 74.7 331.5 75.6 331.5 76.7V81.8C331.5 82.9 332.4 83.8 333.5 83.8H336.1C337.3 83.8 338.4 84.6 338.8 85.8C339.1 86.7 339.5 87.6 339.9 88.5C340.4 89.6 340.3 90.9 339.4 91.8L337.6 93.6C336.8 94.4 336.8 95.7 337.6 96.4L341.2 100C342 100.8 343.3 100.8 344 100L346 98C346.9 97.1 348.2 97 349.3 97.5C350.2 97.9 351.1 98.3 352 98.6C353.2 99 354 100 354 101.3V103.9C354 105 354.9 105.9 356 105.9H361.1C362.2 105.9 363.1 105 363.1 103.9V101.3C363.1 100.1 363.9 99 365.1 98.6C366 98.3 366.9 97.9 367.8 97.5C368.9 97 370.2 97.1 371.1 98L372.9 99.8C373.7 100.6 375 100.6 375.7 99.8L379.3 96.2C380.1 95.4 380.1 94.1 379.3 93.4L377.5 91.6C376.6 90.7 376.5 89.4 377 88.3C377.4 87.4 377.8 86.5 378.1 85.6C378.5 84.4 379.5 83.6 380.8 83.6H383.4C384.3 83.7 385.2 82.8 385.2 81.7ZM358.4 85.2C355 85.2 352.3 82.5 352.3 79.1C352.3 75.7 355 73 358.4 73C361.8 73 364.5 75.7 364.5 79.1C364.6 82.5 361.8 85.2 358.4 85.2Z" fill="#A6B8CB"/>
        <path d="M410.1 113.3V110.4C410.1 109.8 409.6 109.3 409 109.3H407.5C406.8 109.3 406.2 108.8 406 108.2C405.8 107.7 405.6 107.2 405.4 106.7C405.1 106.1 405.2 105.3 405.7 104.9L406.7 103.9C407.1 103.5 407.1 102.7 406.7 102.3L404.7 100.3C404.3 99.9 403.5 99.9 403.1 100.3L402.1 101.3C401.6 101.8 400.9 101.9 400.2 101.6C399.7 101.4 399.2 101.1 398.7 101C398 100.8 397.6 100.2 397.6 99.5V98C397.6 97.4 397.1 96.9 396.5 96.9H393.6C393 96.9 392.5 97.4 392.5 98V99.5C392.5 100.2 392 100.8 391.4 101C390.9 101.2 390.4 101.4 389.9 101.6C389.3 101.9 388.5 101.8 388.1 101.3L387.1 100.3C386.7 99.9 385.9 99.9 385.5 100.3L383.5 102.3C383.1 102.7 383.1 103.5 383.5 103.9L384.5 104.9C385 105.4 385.1 106.1 384.8 106.7C384.6 107.2 384.3 107.7 384.2 108.2C384 108.9 383.4 109.3 382.7 109.3H381C380.4 109.3 379.9 109.8 379.9 110.4V113.3C379.9 113.9 380.4 114.4 381 114.4H382.5C383.2 114.4 383.8 114.9 384 115.5C384.2 116 384.4 116.5 384.6 117C384.9 117.6 384.8 118.4 384.3 118.8L383.3 119.8C382.9 120.2 382.9 121 383.3 121.4L385.3 123.4C385.7 123.8 386.5 123.8 386.9 123.4L387.9 122.4C388.4 121.9 389.1 121.8 389.7 122.1C390.2 122.3 390.7 122.6 391.2 122.7C391.9 122.9 392.3 123.5 392.3 124.2V125.7C392.3 126.3 392.8 126.8 393.4 126.8H396.3C396.9 126.8 397.4 126.3 397.4 125.7V124.2C397.4 123.5 397.9 122.9 398.5 122.7C399 122.5 399.5 122.3 400 122.1C400.6 121.8 401.4 121.9 401.9 122.4L402.9 123.4C403.3 123.8 404.1 123.8 404.5 123.4L406.5 121.4C406.9 121 406.9 120.2 406.5 119.8L405.5 118.8C405 118.3 404.9 117.6 405.2 117C405.4 116.5 405.7 116 405.8 115.5C406 114.8 406.6 114.4 407.3 114.4H408.8C409.6 114.4 410.1 113.9 410.1 113.3ZM395 117.9C391.7 117.9 389 115.2 389 111.9C389 108.6 391.7 105.9 395 105.9C398.3 105.9 401 108.6 401 111.9C401.1 115.2 398.4 117.9 395 117.9Z" fill="#C0CEDD"/>
        <path d="M420.3 80.6V77.7C420.3 77.1 419.8 76.6 419.2 76.6H417.7C417 76.6 416.4 76.1 416.2 75.5C416 75 415.8 74.5 415.6 74C415.3 73.4 415.4 72.6 415.9 72.2L416.9 71.2C417.3 70.8 417.3 70 416.9 69.6L414.9 67.6C414.5 67.2 413.7 67.2 413.3 67.6L412.3 68.6C411.8 69.1 411.1 69.2 410.5 68.9C410 68.7 409.5 68.4 409 68.3C408.3 68.1 407.9 67.5 407.9 66.8V65.3C407.9 64.7 407.4 64.2 406.8 64.2H403.9C403.3 64.2 402.8 64.7 402.8 65.3V66.8C402.8 67.5 402.3 68.1 401.7 68.3C401.2 68.5 400.7 68.7 400.2 68.9C399.6 69.2 398.8 69.1 398.3 68.6L397.3 67.6C396.9 67.2 396.1 67.2 395.7 67.6L393.7 69.6C393.3 70 393.3 70.8 393.7 71.2L394.7 72.2C395.2 72.7 395.3 73.4 395 74C394.8 74.5 394.5 75 394.4 75.5C394.2 76.2 393.6 76.6 392.9 76.6H391.4C390.8 76.6 390.3 77.1 390.3 77.7V80.6C390.3 81.2 390.8 81.7 391.4 81.7H392.9C393.6 81.7 394.2 82.2 394.4 82.8C394.6 83.3 394.8 83.8 395 84.3C395.3 84.9 395.2 85.7 394.7 86.1L393.7 87.1C393.3 87.5 393.3 88.3 393.7 88.7L395.7 90.7C396.1 91.1 396.9 91.1 397.3 90.7L398.3 89.7C398.8 89.2 399.5 89.1 400.2 89.4C400.7 89.6 401.2 89.9 401.7 90C402.4 90.2 402.8 90.8 402.8 91.5V93C402.8 93.6 403.3 94.1 403.9 94.1H406.8C407.4 94.1 407.9 93.6 407.9 93V91.5C407.9 90.8 408.4 90.2 409 90C409.5 89.8 410 89.6 410.5 89.4C411.1 89.1 411.9 89.2 412.3 89.7L413.3 90.7C413.7 91.1 414.5 91.1 414.9 90.7L416.9 88.7C417.3 88.3 417.3 87.5 416.9 87.1L415.9 86.1C415.4 85.6 415.3 84.9 415.6 84.3C415.8 83.8 416.1 83.3 416.2 82.8C416.4 82.1 417 81.7 417.7 81.7H419.2C419.8 81.7 420.3 81.2 420.3 80.6ZM405.2 82.2C403.5 82.2 402.2 80.8 402.2 79.2C402.2 77.5 403.6 76.2 405.2 76.2C406.9 76.2 408.2 77.6 408.2 79.2C408.2 80.8 406.9 82.2 405.2 82.2Z" fill="#CFDAEB"/>
        <path d="M90.2 172.1C90.2 172.1 61.2 134.3 0 138.2C0 138.2 32.5 177 90.2 172.1Z" fill="#198B61"/>
        <path d="M72.5 146.4C72.5 146.4 78.8 99.2 32.7 58.6C32.8 58.6 28.2 109 72.5 146.4Z" fill="#26CF91"/>
        <path d="M68 152.5C68 152.5 108.8 130.4 114.5 70.9C114.5 70.9 72.2 96.1 68 152.5Z" fill="#26CF91"/>
        <path d="M77.3 149.1C77.3 149.1 43.3 128.2 55.7 117.7C65 109.8 46.7 99.6 53.6 95.7C60.6 91.8 62 95.4 59.6 85.3C57.1 75.2 65.3 72.4 68.3 62.1C71.2 51.8 85.8 55.6 84.7 70.6C83.6 85.6 88 69.7 92.8 76C97.6 82.3 81.6 106.6 87.7 104.5C93.8 102.4 98.5 107.1 96.4 114.4C91.5 131.4 77.3 149.1 77.3 149.1Z" fill="#198B61"/>
        <path opacity="0.39" d="M78.5 156.6C78.4 156.6 78.4 156.5 78.4 156.4C76.1 144.8 73.4 129.6 72.2 114.2V114.1L72.1 114C68.6 111 65.5 107.4 62.6 104C61.6 102.9 60.6 101.7 59.6 100.6C59.5 100.5 59.5 100.5 59.6 100.4C59.7 100.3 59.8 100.3 59.9 100.3C59.9 100.3 60 100.3 60 100.4C61 101.5 61.9 102.6 62.9 103.7C65.6 106.9 68.5 110.2 71.7 113L72.2 113.5V112.8C71.8 106.3 71.6 99.6 71.8 92.5V92.3L71.6 92.2C71.6 92.2 71.5 92.2 71.5 92.1C68.8 88 66.4 83.6 64.5 79.1C64.5 79 64.5 79 64.5 78.9C64.6 78.8 64.7 78.8 64.8 78.8L64.9 78.9C66.6 83.1 68.8 87.1 71.2 90.9L71.7 91.7V90.8C71.9 84 72.3 77 72.9 69.4C72.9 69.3 72.9 69.3 73 69.3C73.1 69.3 73.1 69.3 73.2 69.3C73.3 69.3 73.3 69.4 73.3 69.5C72.4 79.9 72 89.4 72 98.3V98.9L72.5 98.6C77.7 94.9 82 90.3 85.3 84.9C85.3 84.8 85.4 84.8 85.5 84.8C85.6 84.8 85.6 84.9 85.6 85C85.6 85.1 85.6 85.1 85.6 85.2C82.1 90.8 77.6 95.6 72.2 99.3L72 99.4V99.6C72 104.6 72.2 109.3 72.5 113.9V114V114.1C72.5 114.2 72.5 114.2 72.5 114.3V114.4V114.5C72.8 118.5 73.2 122.8 73.8 127.4L74 128L74.4 127.4C78.5 121.4 82.9 115.6 87.6 110.1C87.7 110 87.7 110 87.8 110.1C87.9 110.1 87.9 110.2 87.9 110.3V110.4C82.9 116.2 78.3 122.3 74 128.6L73.9 128.7V128.8C75 137 76.4 145.8 78.6 156.6C78.6 156.7 78.6 156.7 78.6 156.7C78.7 156.7 78.6 156.7 78.5 156.6Z" fill="#0E5A3E"/>
        <path d="M81.9 150.4C81.9 150.4 42.8 165.4 41.9 148.3C41.2 135.5 21.1 144.3 22.2 136C23.4 127.7 27.3 128.8 17.3 124.4C7.30001 120 10.2 111.4 3.50001 102.4C-3.19999 93.4 9.20001 83.6 21 94.1C32.8 104.5 22.4 90.8 30.7 90.8C39 90.8 49 119.6 51.2 113.2C53.4 106.8 60.2 105.9 65 112.3C76.2 127.2 81.9 150.4 81.9 150.4Z" fill="#33AA7E"/>
        <path opacity="0.39" d="M88.9 154.2C88.8 154.2 88.8 154.2 88.7 154.2C77.6 148.7 63.1 141.3 49.6 132.4L49.5 132.3H49.4C44.7 133.3 39.7 133.6 35 133.9C33.4 134 31.9 134.1 30.3 134.2C30.2 134.2 30.2 134.2 30.1 134.1C30.1 134 30.1 133.8 30.2 133.8H30.3C31.8 133.7 33.4 133.6 34.9 133.5C39.3 133.2 43.8 133 48.2 132.1L48.9 132L48.3 131.6C42.6 127.8 37 123.7 31.1 119L30.9 118.9L30.7 119H30.6C25.4 118.7 20.3 117.8 15.3 116.5C15.2 116.5 15.2 116.4 15.2 116.4C15.2 116.3 15.2 116.2 15.3 116.1H15.4C20 117.3 24.7 118.1 29.5 118.5L30.5 118.6L29.7 118C24.1 113.5 18.6 108.7 12.6 103.3C12.5 103.2 12.5 103.2 12.5 103.2C12.5 103.1 12.6 103.1 12.6 103C12.7 103 12.8 103 12.9 103C21 110.4 28.6 116.8 36.1 122.5L36.6 122.9V122.3C36.8 115.6 35.7 109.1 33.4 102.8C33.4 102.7 33.4 102.7 33.5 102.6C33.6 102.6 33.7 102.6 33.7 102.6C33.8 102.6 33.8 102.7 33.8 102.7C36.2 109.2 37.3 116 37 122.9V123.1L37.1 123.2C41.3 126.4 45.3 129.2 49.3 131.8H49.4H49.5C49.6 131.8 49.6 131.8 49.7 131.9V132H49.8C53.3 134.3 57.1 136.7 61.4 139.2L62.1 139.6L61.8 138.8C59.4 131.6 57.4 124.1 55.9 116.7C55.9 116.6 55.9 116.5 56 116.5C56.1 116.5 56.2 116.5 56.2 116.5C56.2 116.5 56.3 116.5 56.3 116.6C57.9 124.4 60.1 132.2 62.6 139.8V139.9L62.7 140C70.2 144.3 78.5 148.7 88.8 153.8C88.9 153.8 88.9 153.9 88.9 153.9C89.1 154.1 89 154.2 88.9 154.2Z" fill="#0E5A3E"/>
        <path d="M365.3 115.8H59.4C56.5 115.8 54.2 118.1 54.2 121L53.6 270.2C53.6 273.1 55.9 275.4 58.8 275.4L365.4 272.9C368.3 272.9 370.6 270.6 370.6 267.7V121C370.6 118.2 368.2 115.8 365.3 115.8Z" fill="white"/>
        <path d="M330.6 158H88.8C86.4 158 84.4 159.9 84.4 162.4V184.9C84.4 187.3 86.3 189.3 88.8 189.3H330.6C333 189.3 335 187.4 335 184.9V162.4C335 159.9 333 158 330.6 158Z" fill="#E1E9F3"/>
        <path d="M143.7 158H88.8C86.4 158 84.4 159.9 84.4 162.4V184.9C84.4 187.3 86.3 189.3 88.8 189.3H143.6C146 189.3 148 187.3 148 184.9V162.5C148.1 159.9 146.1 158 143.7 158Z" fill="#33AA7E"/>
        <path d="M123.5 205.5H92.5C89.7 205.5 87.4 207.8 87.4 210.6V241.6C87.4 244.4 89.7 246.7 92.5 246.7H123.5C126.3 246.7 128.6 244.4 128.6 241.6V210.6C128.6 207.8 126.3 205.5 123.5 205.5Z" fill="#596E99"/>
        <path d="M205.2 205.5H174.2C171.4 205.5 169.1 207.8 169.1 210.6V241.6C169.1 244.4 171.4 246.7 174.2 246.7H205.2C208 246.7 210.3 244.4 210.3 241.6V210.6C210.3 207.8 208 205.5 205.2 205.5Z" fill="#596E99"/>
        <path d="M134 209.9C133.6 209.9 133.4 209.6 133.4 209.3C133.4 208.9 133.7 208.7 134 208.7H161.3C161.7 208.7 161.9 209 161.9 209.3C161.9 209.7 161.6 209.9 161.3 209.9H134Z" fill="#E1E6EA"/>
        <path d="M134 216.6C133.6 216.6 133.4 216.3 133.4 216C133.4 215.7 133.7 215.4 134 215.4H161.3C161.7 215.4 161.9 215.7 161.9 216C161.9 216.3 161.6 216.6 161.3 216.6H134Z" fill="#E1E6EA"/>
        <path d="M134 223.2C133.6 223.2 133.4 222.9 133.4 222.6C133.4 222.2 133.7 222 134 222H161.3C161.7 222 161.9 222.3 161.9 222.6C161.9 223 161.6 223.2 161.3 223.2H134Z" fill="#E1E6EA"/>
        <path d="M134 229.9C133.6 229.9 133.4 229.6 133.4 229.3C133.4 228.9 133.7 228.7 134 228.7H161.3C161.7 228.7 161.9 229 161.9 229.3C161.9 229.7 161.6 229.9 161.3 229.9H134Z" fill="#E1E6EA"/>
        <path d="M134 236.5C133.6 236.5 133.4 236.2 133.4 235.9C133.4 235.6 133.7 235.3 134 235.3H161.3C161.7 235.3 161.9 235.6 161.9 235.9C161.9 236.2 161.6 236.5 161.3 236.5H134Z" fill="#E1E6EA"/>
        <path d="M134 243.1C133.6 243.1 133.4 242.8 133.4 242.5C133.4 242.2 133.7 241.9 134 241.9H145.7C146.1 241.9 146.3 242.2 146.3 242.5C146.3 242.8 146 243.1 145.7 243.1H134Z" fill="#E1E6EA"/>
        <path d="M217.2 209.9C216.8 209.9 216.6 209.6 216.6 209.3C216.6 208.9 216.9 208.7 217.2 208.7H244.5C244.9 208.7 245.1 209 245.1 209.3C245.1 209.7 244.8 209.9 244.5 209.9H217.2Z" fill="#E1E6EA"/>
        <path d="M217.2 216.6C216.8 216.6 216.6 216.3 216.6 216C216.6 215.7 216.9 215.4 217.2 215.4H244.5C244.9 215.4 245.1 215.7 245.1 216C245.1 216.3 244.8 216.6 244.5 216.6H217.2Z" fill="#E1E6EA"/>
        <path d="M217.2 223.2C216.8 223.2 216.6 222.9 216.6 222.6C216.6 222.2 216.9 222 217.2 222H244.5C244.9 222 245.1 222.3 245.1 222.6C245.1 223 244.8 223.2 244.5 223.2H217.2Z" fill="#E1E6EA"/>
        <path d="M217.2 229.9C216.8 229.9 216.6 229.6 216.6 229.3C216.6 228.9 216.9 228.7 217.2 228.7H244.5C244.9 228.7 245.1 229 245.1 229.3C245.1 229.7 244.8 229.9 244.5 229.9H217.2Z" fill="#E1E6EA"/>
        <path d="M217.2 236.5C216.8 236.5 216.6 236.2 216.6 235.9C216.6 235.6 216.9 235.3 217.2 235.3H244.5C244.9 235.3 245.1 235.6 245.1 235.9C245.1 236.2 244.8 236.5 244.5 236.5H217.2Z" fill="#E1E6EA"/>
        <path d="M217.2 243.1C216.8 243.1 216.6 242.8 216.6 242.5C216.6 242.2 216.9 241.9 217.2 241.9H228.9C229.3 241.9 229.5 242.2 229.5 242.5C229.5 242.8 229.2 243.1 228.9 243.1H217.2Z" fill="#E1E6EA"/>
        <path d="M289.1 206H258.1C255.3 206 253 208.3 253 211.1V242.1C253 244.9 255.3 247.2 258.1 247.2H289.1C291.9 247.2 294.2 244.9 294.2 242.1V211.1C294.2 208.3 291.9 206 289.1 206Z" fill="$dark"/>
        <path d="M301.2 209.9C300.8 209.9 300.6 209.6 300.6 209.3C300.6 208.9 300.9 208.7 301.2 208.7H328.5C328.9 208.7 329.1 209 329.1 209.3C329.1 209.7 328.8 209.9 328.5 209.9H301.2Z" fill="#E1E6EA"/>
        <path d="M301.2 216.6C300.8 216.6 300.6 216.3 300.6 216C300.6 215.7 300.9 215.4 301.2 215.4H328.5C328.9 215.4 329.1 215.7 329.1 216C329.1 216.3 328.8 216.6 328.5 216.6H301.2Z" fill="#E1E6EA"/>
        <path d="M301.2 223.2C300.8 223.2 300.6 222.9 300.6 222.6C300.6 222.2 300.9 222 301.2 222H328.5C328.9 222 329.1 222.3 329.1 222.6C329.1 223 328.8 223.2 328.5 223.2H301.2Z" fill="#E1E6EA"/>
        <path d="M301.2 229.9C300.8 229.9 300.6 229.6 300.6 229.3C300.6 228.9 300.9 228.7 301.2 228.7H328.5C328.9 228.7 329.1 229 329.1 229.3C329.1 229.7 328.8 229.9 328.5 229.9H301.2Z" fill="#E1E6EA"/>
        <path d="M301.2 236.5C300.8 236.5 300.6 236.2 300.6 235.9C300.6 235.6 300.9 235.3 301.2 235.3H328.5C328.9 235.3 329.1 235.6 329.1 235.9C329.1 236.2 328.8 236.5 328.5 236.5H301.2Z" fill="#E1E6EA"/>
        <path d="M301.2 243.1C300.8 243.1 300.6 242.8 300.6 242.5C300.6 242.2 300.9 241.9 301.2 241.9H312.9C313.3 241.9 313.5 242.2 313.5 242.5C313.5 242.8 313.2 243.1 312.9 243.1H301.2Z" fill="#E1E6EA"/>
        <path fill-rule="evenodd" clip-rule="evenodd" d="M363.4 124H355.3C354.9 124 354.5 124.4 354.5 124.8C354.5 125.2 354.9 125.6 355.3 125.6H363.4C363.8 125.6 364.2 125.2 364.2 124.8C364.2 124.4 363.9 124 363.4 124Z" fill="#596E99"/>
        <path fill-rule="evenodd" clip-rule="evenodd" d="M363.4 127.8H355.3C354.9 127.8 354.5 128.2 354.5 128.6C354.5 129 354.9 129.4 355.3 129.4H363.4C363.8 129.4 364.2 129 364.2 128.6C364.2 128.2 363.9 127.8 363.4 127.8Z" fill="#596E99"/>
        <path fill-rule="evenodd" clip-rule="evenodd" d="M363.4 131.6H355.3C354.9 131.6 354.5 132 354.5 132.4C354.5 132.8 354.9 133.2 355.3 133.2H363.4C363.8 133.2 364.2 132.8 364.2 132.4C364.2 131.9 363.9 131.6 363.4 131.6Z" fill="#596E99"/>
        <path d="M73.2 128.2C73.2 130.2 71.6 131.7 69.7 131.7C67.7 131.7 66.2 130.1 66.2 128.2C66.2 126.2 67.8 124.7 69.7 124.7C71.7 124.6 73.2 126.2 73.2 128.2Z" fill="#596E99"/>
        <path d="M92.4 128.2C92.4 130.2 90.8 131.7 88.9 131.7C87 131.7 85.4 130.1 85.4 128.2C85.4 126.2 87 124.7 88.9 124.7C90.8 124.7 92.4 126.2 92.4 128.2Z" fill="$dark"/>
        <path d="M112 128.2C112 130.2 110.4 131.7 108.5 131.7C106.5 131.7 105 130.1 105 128.2C105 126.2 106.6 124.7 108.5 124.7C110.4 124.6 112 126.2 112 128.2Z" fill="#4A5E86"/>
        <path d="M200.3 230.2L191.3 217.3C190.3 215.9 188.2 215.9 187.3 217.3L178.3 230.2C177.1 231.8 178.3 234.1 180.3 234.1H198.4C200.3 234.1 201.5 231.8 200.3 230.2Z" fill="$dark"/>
        <path d="M273.6 237.2C279.454 237.2 284.2 232.454 284.2 226.6C284.2 220.746 279.454 216 273.6 216C267.746 216 263 220.746 263 226.6C263 232.454 267.746 237.2 273.6 237.2Z" fill="#596E99"/>
        <path d="M429.4 278.9C429.4 273.3 336.4 268.8 221.7 268.8C107 268.8 14 273.3 14 278.9C14 284.5 107 289 221.7 289C336.4 289 429.4 284.5 429.4 278.9Z" fill="#E1E9F3"/>
        <path fill-rule="evenodd" clip-rule="evenodd" d="M195 88.7C194.6 86.3 193.4 81 188.9 82.9C180.1 79.5 176.2 83.8 175.6 89.5C174.8 96.7 170.8 99.5 172.3 101.6C174.2 104.2 179.9 107.9 185.9 108.1C192.1 108.2 197.5 103.2 199.2 100.5C200.3 98.2 196 95.8 195 88.7Z" fill="$dark"/>
        <path fill-rule="evenodd" clip-rule="evenodd" d="M224.7 124.3C221.6 118.6 209.2 105.6 207.8 105.1C203.9 103.8 197.8 103.2 194.2 102.9C191.8 102.5 185.2 102.6 185.2 102.6H182.6C179.2 102.6 169.7 103 163.1 105.3C161.7 105.8 149 118.5 145.8 124.2C145.1 125.5 145 127.2 145.6 128.6L159.1 155.5L165.8 154.1L160.5 130.8C160.1 129 160.7 127.1 162 125.9L170.5 115.8H182.6H199.8L208.4 125.9C209.7 127.1 210.3 129 209.9 130.8L204.6 154.1L211.4 155.1L224.7 128.6C225.5 127.3 225.5 125.7 224.7 124.3Z" fill="#596E99"/>
        <path fill-rule="evenodd" clip-rule="evenodd" d="M165.2 154.4L168.1 156.9C168.5 157.2 168.3 157.9 167.8 157.9L166.6 158L167.4 160.2C168.2 162.5 163.5 165.9 161.6 161.4L159.6 155.5L165.2 154.4Z" fill="#FFA683"/>
        <path fill-rule="evenodd" clip-rule="evenodd" d="M205.5 154.3L202.5 156.8C202.1 157.1 202.3 157.8 202.8 157.8L204 157.9L203.2 160.1C202.4 162.4 207.1 165.8 209 161.3L211.1 155L205.5 154.3Z" fill="#FFA683"/>
        <path fill-rule="evenodd" clip-rule="evenodd" d="M192.9 91.8L193 97.2C193 99.2 192.3 101.2 190.8 102.6C190.6 102.8 190.3 103.1 190.1 103.3C187.6 105.7 183.6 105.8 181.1 103.5L180.4 102.8C178.9 101.5 178 99.5 178 97.5L177.9 92C177.9 92 185.6 91.9 188.5 88.3C188.4 88.4 189.9 91.2 192.9 91.8Z" fill="#FFA683"/>
        <path fill-rule="evenodd" clip-rule="evenodd" d="M192.9 91.8L193 97.2C193 99.2 192.3 101.2 190.8 102.6C190.6 102.8 190.3 103.1 190.1 103.3C187.6 105.7 183.6 105.8 181.1 103.5L180.4 102.8C178.9 101.5 178 99.5 178 97.5L177.9 92C177.9 92 185.5 91.9 188.4 88.3C188.3 88.4 189.9 91.2 192.9 91.8Z" fill="#FFA683"/>
        <path fill-rule="evenodd" clip-rule="evenodd" d="M179.8 98.6C181.2 96.2 178.7 93.8 176.4 95.3C176.2 95.4 176.1 95.6 176 95.8C174.6 98.2 177.1 100.6 179.4 99.1C179.6 98.9 179.7 98.8 179.8 98.6Z" fill="#FFA683"/>
        <path fill-rule="evenodd" clip-rule="evenodd" d="M194.9 98.3C196.3 96 193.9 93.6 191.7 94.9C191.4 95.1 191.2 95.3 191 95.6C189.8 97.9 192.3 100.2 194.5 98.7C194.6 98.6 194.7 98.5 194.9 98.3Z" fill="#FFA683"/>
        <path fill-rule="evenodd" clip-rule="evenodd" d="M189.8 103.9C189.8 101.5 187.9 99.6 185.5 99.6C183.1 99.6 181.2 101.5 181.2 103.9C181.2 106.3 183.1 108.7 185.5 108.7C187.9 108.7 189.8 106.2 189.8 103.9Z" fill="#FFA683"/>
        <path fill-rule="evenodd" clip-rule="evenodd" d="M181.3 103.7C181.3 103.8 181.3 103.8 181.3 103.9C181.3 104.1 183.5 106.3 185.7 106.3C187.8 106.3 189.9 104.1 189.9 103.9C189.9 103.8 189.9 103.7 189.9 103.7C187.4 105.7 183.8 105.7 181.3 103.7Z" fill="#EF7F5E"/>
        <path d="M165.8 154.2L160.5 130.9C160.1 129.1 160.7 127.2 162 126L170.5 115.9C170.5 115.9 172.4 112.7 171.4 113.1C170.5 113.5 157.8 124.4 156.7 127C155.8 129 160.8 146.5 163.2 154.6L165.8 154.2Z" fill="#4A5E86"/>
        <path d="M207.9 105.2C207.7 105.1 207.4 105 207.2 105C209.6 107.9 224.5 125.5 222.8 129.2C221.3 132.5 212.1 149.3 209.2 154.9L211.5 155.2L224.8 128.7C225.4 127.3 225.4 125.7 224.6 124.3C221.6 118.6 209.2 105.6 207.9 105.2Z" fill="#4A5E86"/>
        <path d="M84.4 236.1L85.2 238.2L96.5 237C96.5 237 109 252.9 114.2 258.4C114.7 259 115.3 259.6 116 260.4C119.3 252.4 126 227.2 119.2 225.2C109.1 222.2 84.4 236.1 84.4 236.1Z" fill="$dark"/>
        <path d="M107.2 250.3C109.9 253.5 112.5 256.6 114.3 258.5C114.8 259.1 115.4 259.7 116.1 260.5C118.2 255.5 121.5 243.9 122.1 235.3C119.8 235.5 112.1 244.3 107.2 250.3Z" fill="#283155"/>
        <path d="M96.5 237.1C96.5 237.1 109 253 114.2 258.5C119.4 263.9 131.2 280 99.4 278.8C67.5 277.6 53.1 272.7 53.1 272.7L52.4 265.8L85.7 262.3C85.7 262.3 64.9 259.9 67.4 240.2L96.5 237.1Z" fill="$dark"/>
        <path d="M97.1 239.5L97.7 238.5C100.9 242.6 110 254 114.2 258.4C116.2 260.5 119.3 264.3 120.3 268C117.9 262.3 110.4 257 104 250.8C95.8 242.8 97.1 239.5 97.1 239.5Z" fill="#283155"/>
        <path d="M46.7 267.1C46.7 267.1 46.6 267.1 46.4 267.1C45.3 267.2 42.1 267.4 41.5 268.8C40.8 270.4 40.5 278.6 45.9 278.9C51.3 279.1 44.9 274.9 46.7 273.1V267.1Z" fill="#4A5E86"/>
        <path d="M52.4 265.6L85.7 262.1C85.7 262.1 89.3 263.7 100.5 268.1C107.3 270.8 114.4 273.5 118.3 275.3C115.5 277.6 109.7 279 99.3 278.6C67.4 277.4 53 272.5 53 272.5L52.4 265.6Z" fill="#283155"/>
        <path d="M53.1 272.5C53.1 272.5 49.1 270.8 46.9 273.1C43.8 276.4 46.7 267 46.7 267L52.5 265.6L53.1 272.5Z" fill="#FFA683"/>
        <path d="M128.4 184.1L118.7 176.1C118.4 175.8 118.3 175.4 118.5 175C120.2 171.5 119.2 167.2 115.8 164.8C112.7 162.6 108.4 163 105.6 165.6C105.1 166.1 104.6 166.7 104.2 167.3C102.2 170.7 102.9 175.1 106 177.7C108.9 180.1 113.1 180.1 116 178C116.1 177.9 116.2 177.9 116.3 177.9C116.6 177.8 116.9 177.9 117.1 178.1L126.8 186.1C127.1 186.3 127.4 186.4 127.7 186.4C128 186.4 128.3 186.2 128.5 186C128.9 185.3 128.9 184.5 128.4 184.1ZM115.7 175.2C113.6 177.7 109.9 178.1 107.4 176C104.9 173.9 104.5 170.2 106.6 167.7C108.7 165.2 112.4 164.8 114.9 166.9C117.5 169 117.8 172.7 115.7 175.2Z" fill="white"/>
        <path d="M115 166.9C112.5 164.8 108.8 165.1 106.7 167.7C104.6 170.3 104.9 173.9 107.5 176C110 178.1 113.7 177.8 115.8 175.2C117.8 172.7 117.5 169 115 166.9Z" fill="#33AA7E"/>
        <path d="M123.2 179.3C122.3 179.2 121.4 179.9 120.5 180.7C120.3 179.9 119.8 178.7 119.4 178.5C118.7 178.2 117.9 183.8 117.9 183.8L118.4 183.4C118.3 183.5 118.3 183.6 118.3 183.6L123 186C126 181.9 125.3 179.6 123.2 179.3Z" fill="#FFA683"/>
        <path d="M67.5 222C68.4 212.3 69.8 201.9 71.6 199.1C72.5 197.7 73.3 196.7 74.3 196.1C74.3 196.1 65.5 201.7 61.9 210.3C60.2 214.5 63.6 218.7 67.5 222Z" fill="$dark"/>
        <path d="M91.4 195.7L91.1 191.9C92.3 191.7 93.4 191.2 94.3 190.2C96.7 187.7 96.6 183.1 94.5 180.4C92.5 181 90 180.6 89.9 181.7C89.8 183.4 89.6 184.8 89.6 184.8C88 183.8 86.2 183.9 86.5 186.1C86.6 187 87.2 188.4 87.9 188.5C87.9 188.5 88.4 192.2 84.7 193.7V195L91.4 195.7Z" fill="#FFA683"/>
        <path d="M78.3 182.8C79.9 176.2 82.5 172.4 89.6 172.3C96.1 172.1 96.9 177.5 96.9 177.5C96.7 182.1 90.1 179.9 90 181.7C89.9 183.4 89.7 184.8 89.7 184.8C88.1 183.8 86.3 183.9 86.6 186.1C86.7 187 87.3 188.4 88 188.5C88 188.5 88.5 192.2 84.8 193.7C84.7 193.6 76.7 189.4 78.3 182.8Z" fill="$dark"/>
        <path d="M89.7 193.1C89.1 192.7 88.4 190.8 88.4 190.8C89.1 191.6 91.2 191.9 91.2 191.9L91.5 195.7L90 195.5C89.9 194.3 89.9 193.2 89.7 193.1Z" fill="#EF7F5E"/>
        <path d="M66 240.9C66 240.9 68 204.7 71.6 199.1C73.1 196.8 74.4 195.6 76.7 195.1C78.1 194.8 83.3 194.6 84.7 194.8C87.8 195.1 95.7 196.1 97.6 196.9C100.2 198 110.7 207.1 110.7 207.1L117.7 183.1L123.5 185.3C123.5 185.3 117.8 220.4 113.3 220.4C108.8 220.5 97.2 214 97.2 214C97.2 214 96.3 236 100.6 240.1C100.7 240.1 82.6 248.4 66 240.9Z" fill="#4A5E86"/>
        <path d="M71.7 198.1C73.3 196.8 74.4 196.1 74.4 196.1C73.4 196.8 72.6 197.7 71.7 199.1C69.9 201.9 68.5 212.3 67.6 222C66.6 221.2 65.7 220.3 64.9 219.4C65.2 213.6 66.7 203.4 71.7 198.1Z" fill="#4A5E86"/>
        <path d="M90.8 211.3C90.2 210.1 97.3 214 97.3 214C97.3 214 96.4 236 100.7 240.1C100.7 240.1 99.4 240.7 97.3 241.4C94.8 234 95.4 224.1 94.9 220.6C94.3 215.8 91.4 212.5 90.8 211.3Z" fill="$dark"/>
        <path d="M331.5 274.5C331.5 274.8 331.5 275.2 331.4 275.6C331.3 276.8 330 277.5 329.7 277.7C329.9 277.7 330 277.7 330.1 277.8C332.3 278.7 333.5 279 335.6 278.1C335.8 278 335.9 278 336.1 278.1C336 277.1 335.8 275.6 335.7 274.5H331.5Z" fill="#FFA683"/>
        <path d="M336.6 281.3C336.6 280.4 336.6 279.4 336.6 278.7C336.6 278.2 336.1 277.9 335.7 278.1C333.6 279 332.4 278.8 330.2 277.8C328.5 277.1 323.2 280.1 321.9 280.9C321.2 281.4 321.6 282.4 322.4 282.4H335.5C336 282.5 336.5 281.9 336.6 281.3Z" fill="#4A5E86"/>
        <path d="M353.2 273.7C353.2 274 353.2 274.4 353.1 274.8C353 276 351.7 276.7 351.4 276.9C351.6 276.9 351.7 276.9 351.8 277C354 277.9 355.2 278.2 357.3 277.3C357.5 277.2 357.6 277.2 357.8 277.3C357.7 276.3 357.5 274.8 357.4 273.7H353.2Z" fill="#FFA683"/>
        <path d="M358.2 280.5C358.2 279.6 358.2 278.6 358.2 277.9C358.2 277.4 357.7 277.1 357.3 277.3C355.2 278.2 354 278 351.8 277C350.1 276.3 344.8 279.3 343.5 280.1C342.8 280.6 343.2 281.6 344 281.6H357C357.6 281.6 358.2 281.1 358.2 280.5Z" fill="#4A5E86"/>
        <path d="M354.2 198.3C354.2 200.1 355.5 205.1 355.5 210.7C355.5 221.4 350.1 235.7 350.1 235.7L359.2 274.3L351.5 274.5L334.5 236.8L335.7 196.4L354.2 198.3Z" fill="$dark"/>
        <path d="M348.1 196.1C348.1 196.1 346.9 208.7 344.3 217.9C342.2 225.6 326.7 237.4 326.7 237.4L336.8 274.9H330.5L308 238.5C307.4 236.9 307.5 235.2 308.2 233.7L329.6 192.8L348.1 196.1Z" fill="$dark"/>
        <path d="M295.1 189.3H287C287 189.3 287.4 194.1 295.8 194.1L295.1 189.3Z" fill="#FFA683"/>
        <path d="M338.4 148.4C338.5 148 338.6 146.9 338.5 146.3C338.3 143.8 336.8 143.4 335 144.9C335 144.9 333.4 143.9 332.6 142C332.1 140.9 329.9 141.7 328.3 141.4C326.9 144.9 328.2 149.8 331.2 152C332.4 152.9 333.6 153 335.1 153L335.5 159.2L343.1 157.2L343 153.5C340.1 153.7 338 151.2 338.4 148.4Z" fill="#FFA683"/>
        <path opacity="0.4" d="M332.5 275C330.9 272.3 311.2 238.7 314.1 234.6C317.1 230.3 330.6 203.8 330.6 203.8L327.4 199.7C327.4 199.7 326.4 200.5 324.9 201.8L308.2 233.7C307.5 235.2 307.4 236.9 308 238.5L330.5 275H332.5Z" fill="#1C2341"/>
        <path d="M329.9 165.9C330.3 158.2 342.3 157.6 343.5 157.6C345.2 157.6 346.8 158.5 347.9 159.7C349.8 161.8 353.5 166.5 352.3 173C349.3 189.8 355.5 200.6 356.3 205.8C345.2 210.3 321.7 204.7 321.7 204.7L328.9 177.4L329.9 165.9Z" fill="#4A5E86"/>
        <path d="M321 184.3C321 184.3 328.3 157.8 337.6 159.3C347.9 161 330.9 193.9 330.9 193.9L295.7 194.6L295 189L321 184.3Z" fill="#4A5E86"/>
        <path d="M336.3 193C334.6 198.2 328.8 197.8 328.8 197.8L325.6 205.7C323.2 205.2 321.7 204.9 321.7 204.9L324.5 194.1L330.9 194C330.9 194 342.7 171.1 340.7 162.5C341.1 163.1 343.9 170 336.3 193Z" fill="$dark"/>
        <path d="M346.2 175.3C334.3 174.7 338.3 151.5 338.4 147C338.5 144.5 336.7 143.4 335 144.9C335 144.9 333.4 143.9 332.6 142C332.1 140.8 329.4 141.7 327.8 141.4C331.2 127.7 347.3 128.3 354.4 146.9C360.6 162.9 365.3 176.3 346.2 175.3Z" fill="$dark"/>
        <path d="M336.1 154.3C336.4 154 337.7 151.5 337.7 151.5C337.1 152.1 335.9 152.7 335.4 152.9C335.2 153 335.1 153 335.1 153L335.5 159.2L336.3 159C336.2 157.2 336 154.5 336.1 154.3Z" fill="#EF7F5E"/>
        <path d="M327.6 172.5C329.2 165.2 334 160.6 335.2 159.5C327.1 162.2 321 184.3 321 184.3L295 189L324.1 187.3C324.1 187.2 325.9 180.8 327.6 172.5Z" fill="#596E99"/>
        <path d="M415.6 202.3C415 205.4 405 223.1 398.8 234.9C393.9 244.2 395 253 395.7 256.4H396.9C396.2 252.3 395.9 252.9 396.9 246.5C398 239.5 409 234.6 415.9 221.1C422.7 207.7 416.1 199.3 415.6 202.3Z" fill="#33AA7E"/>
        <path d="M392.5 249.2C392.8 252.6 393.1 254.9 393.3 256.5H393.9C394.1 250.8 394.5 241 394.2 234.4C393.9 224.7 396.5 220.7 398 204.4C399.5 188.1 395.3 164.9 395.3 164.9C395.3 164.9 385.1 185.7 388.7 208.7C392.2 231.8 390.9 234.4 392.5 249.2Z" fill="#33AA7E"/>
        <path d="M389.6 245.9C389.7 249.6 390.3 254 390.7 256.4H391.3C391.2 254.7 391.1 251.6 390.9 246.1C390.5 229.4 388.8 229.6 385.9 218.4C383 207.2 378.3 202.6 373.5 196.9C373.5 196.9 368.5 204.9 375.6 216.9C382.6 228.9 385.4 229.7 387.1 235.6C388.8 241.5 389.5 240.7 389.6 245.9Z" fill="#33AA7E"/>
        <path d="M387.9 256.4H388.6C388.9 254.1 389 250.7 387.1 247.5C383.9 242.1 381.4 234.9 376.4 230.1C369.6 223.6 364.9 207.4 364.9 207.4C364.9 207.4 361.3 221.8 368.2 233.2C375.1 244.6 380.8 246.8 383.9 248.6C387.3 250.7 388 254 387.9 256.4Z" fill="#33AA7E"/>
        <path d="M393.2 256.4H393.3L393.8 254.2C394 248.4 394.2 240.1 394 234.3C393.7 224.6 396.3 220.6 397.8 204.3C399.3 188 395.1 164.8 395.1 164.8C395.1 164.8 391.2 197 392.3 211.8C393.4 225.5 393.3 252.5 393.2 256.4Z" fill="#249B6F"/>
        <path d="M415.9 201.7C416 206 415.7 220.8 406.9 228.7C396.8 237.8 393.6 247.9 396.6 256.4H396.7C396 252.3 395.7 252.9 396.7 246.5C397.8 239.5 408.8 234.6 415.7 221.1C421.9 209.2 417.4 201.2 415.9 201.7Z" fill="#249B6F"/>
        <path d="M391 256.4H391.3C391.2 254.7 391.1 251.6 390.9 246.1C390.5 229.4 388.8 229.6 385.9 218.4C383 207.2 378.3 202.6 373.5 196.9C373.5 196.9 373.3 208 380.5 218.7C387.7 229.4 389.7 237.3 389.9 240.2C390.1 242.7 390.8 252.9 391 256.4Z" fill="#249B6F"/>
        <path d="M388.1 256.4H388.7C389 254.1 389.1 250.7 387.2 247.5C384 242.1 381.5 234.9 376.5 230.1C369.7 223.6 365 207.4 365 207.4C365 207.4 365.2 225.7 370.6 231.1C375.9 236.4 375.8 234.9 379.9 240.2C384 245.5 385.3 247 386.9 250.2C387.9 252.3 388.1 254.9 388.1 256.4Z" fill="#249B6F"/>
        <path d="M401.2 253.5H382.5C380.6 253.5 379.2 255.2 379.5 257.1L383.2 276.3C383.5 277.7 384.7 278.8 386.2 278.8H397.6C399.1 278.8 400.3 277.8 400.6 276.3L404.3 257.1C404.6 255.2 403.1 253.5 401.2 253.5Z" fill="#CFDAEB"/>
        <path d="M404.2 255.8C403.9 254.5 402.7 253.5 401.2 253.5H382.5C381 253.5 379.9 254.5 379.5 255.8H404.2Z" fill="#C0CEDD"/>
        <path d="M401.2 253.5H397C398.9 253.5 400.3 255.2 400 257.1L396.3 276.3C396 277.7 394.8 278.8 393.3 278.8H397.5C399 278.8 400.2 277.8 400.5 276.3L404.2 257.1C404.6 255.2 403.1 253.5 401.2 253.5Z" fill="#C0CEDD"/>
    </g>
    <defs>
        <linearGradient id="paint0_linear" x1="212.09" y1="0.0342331" x2="212.09" y2="261.9" gradientUnits="userSpaceOnUse">
            <stop stop-color="#F0F3F9"/>
            <stop offset="1" stop-color="#F9FBFD"/>
        </linearGradient>
        <linearGradient id="paint1_linear" x1="247.347" y1="72.5587" x2="308.147" y2="56.8114" gradientUnits="userSpaceOnUse">
            <stop stop-color="white"/>
            <stop offset="1" stop-color="white" stop-opacity="0"/>
        </linearGradient>
        <linearGradient id="paint2_linear" x1="251.346" y1="87.9991" x2="312.146" y2="72.2519" gradientUnits="userSpaceOnUse">
            <stop stop-color="white"/>
            <stop offset="1" stop-color="white" stop-opacity="0"/>
        </linearGradient>
        <clipPath id="clip0">
            <rect width="429.4" height="289" fill="white"/>
        </clipPath>
    </defs>
</svg>
