<svg width="48" height="48" viewBox="0 0 48 48" fill="none" xmlns="http://www.w3.org/2000/svg">
<rect width="48" height="48" fill="black"/>
<path d="M13.2305 25.3203V32H10.9805V14.9375H17.2734C19.1406 14.9375 20.6016 15.4141 21.6562 16.3672C22.7188 17.3203 23.25 18.582 23.25 20.1523C23.25 21.8086 22.7305 23.0859 21.6914 23.9844C20.6602 24.875 19.1797 25.3203 17.25 25.3203H13.2305ZM13.2305 23.4805H17.2734C18.4766 23.4805 19.3984 23.1992 20.0391 22.6367C20.6797 22.0664 21 21.2461 21 20.1758C21 19.1602 20.6797 18.3477 20.0391 17.7383C19.3984 17.1289 18.5195 16.8125 17.4023 16.7891H13.2305V23.4805ZM32.3789 25.0977H28.3711V32H26.1094V14.9375H31.7578C33.6797 14.9375 35.1562 15.375 36.1875 16.25C37.2266 17.125 37.7461 18.3984 37.7461 20.0703C37.7461 21.1328 37.457 22.0586 36.8789 22.8477C36.3086 23.6367 35.5117 24.2266 34.4883 24.6172L38.4961 31.8594V32H36.082L32.3789 25.0977ZM28.3711 23.2578H31.8281C32.9453 23.2578 33.832 22.9688 34.4883 22.3906C35.1523 21.8125 35.4844 21.0391 35.4844 20.0703C35.4844 19.0156 35.168 18.207 34.5352 17.6445C33.9102 17.082 33.0039 16.7969 31.8164 16.7891H28.3711V23.2578Z" fill="white"/>
</svg>
