<svg width="10" height="10" viewBox="0 0 10 10" fill="none" xmlns="http://www.w3.org/2000/svg"><path d="M8.19027 6.74869V3.24871C8.74677 3.13528 9.16683 2.64217 9.16683 2.05273C9.16683 1.37969 8.61917 0.832031 7.94613 0.832031C7.27309 0.832031 6.72542 1.37969 6.72542 2.05273C6.72542 2.64217 7.14549 3.13528 7.70199 3.24871V4.75456H5.2443V3.24871C5.8008 3.13528 6.22087 2.64217 6.22087 2.05273C6.22087 1.37969 5.6732 0.832031 5.00016 0.832031C4.32712 0.832031 3.77946 1.37969 3.77946 2.05273C3.77946 2.64217 4.19952 3.13528 4.75602 3.24871V4.75456H2.29834V3.24871C2.85484 3.13528 3.2749 2.64217 3.2749 2.05273C3.2749 1.37969 2.72724 0.832031 2.0542 0.832031C1.38116 0.832031 0.833496 1.37969 0.833496 2.05273C0.833496 2.64217 1.25356 3.13528 1.81006 3.24871V5.24284H4.75602V6.74869C4.19952 6.86211 3.77946 7.35523 3.77946 7.94466C3.77946 8.6177 4.32712 9.16537 5.00016 9.16537C5.6732 9.16537 6.22087 8.6177 6.22087 7.94466C6.22087 7.35523 5.8008 6.86211 5.2443 6.74869V5.24284H7.70199V6.74869C7.14549 6.86211 6.72542 7.35523 6.72542 7.94466C6.72542 8.6177 7.27309 9.16537 7.94613 9.16537C8.61917 9.16537 9.16683 8.6177 9.16683 7.94466C9.16683 7.35523 8.74677 6.86211 8.19027 6.74869Z" fill="#808080" data-darkreader-inline-fill="" style="--darkreader-inline-fill:#988f81;"></path></svg>