

<svg fill="#808080" version="1.1" id="Capa_1" xmlns="http://www.w3.org/2000/svg" xmlns:xlink="http://www.w3.org/1999/xlink" x="0px" y="0px"
	 viewBox="0 0 213.541 213.541" style="enable-background:new 0 0 213.541 213.541;" xml:space="preserve">
<g>
	<path d="M106.771,0C47.897,0,0,47.897,0,106.771s47.897,106.771,106.771,106.771s106.771-47.897,106.771-106.771
		S165.644,0,106.771,0z M106.771,180.042c-40.467,0-73.271-32.805-73.271-73.271c0-40.467,32.805-73.271,73.271-73.271
		s73.271,32.805,73.271,73.271C180.042,147.238,147.238,180.042,106.771,180.042z"/>
	<path d="M128.977,105.766c-4.531-4.061-11.28-7.165-20.074-9.23c-6.418-1.474-9.345-3.113-10.697-4.251
		c-1.525-1.254-2.235-2.881-2.235-5.146c-0.022-2.753,0.731-4.409,2.469-5.862c1.842-1.569,4.748-2.188,8.435-2.188h0.209
		c3.234,0,4.331,0.453,6.06,1.97c1.658,1.455,2.733,3.837,3.208,7.366l0.561,3.427l17.044-0.132l-0.149-4.307
		c-0.398-7.503-3.272-13.55-8.57-17.98c-3.296-2.687-6.222-4.533-10.491-5.518l-0.044-9.655l-17.667,0.121l0.075,10.016
		c-3.888,1.074-7.361,2.871-10.35,5.355c-5.517,4.561-8.29,10.479-8.244,17.591c0.035,6.219,2.29,11.494,6.718,15.693
		c4.076,3.818,10.136,6.684,18.005,8.515c7.691,1.802,11.244,3.7,12.862,4.969c1.919,1.518,2.775,3.388,2.775,6.066
		c0,3.497-0.96,5.972-3.03,7.797c-2.179,1.935-5.439,2.934-9.667,2.968c-4.25,0-6.015-0.914-8.193-2.87
		c-2.095-1.815-3.097-4.365-3.156-8.087l-0.148-4.001l-16.979,0.06l-0.462,5.882l0.005,0.162c0.188,6.327,3.092,11.955,8.677,16.767
		c3.893,3.222,7.204,5.427,11.627,6.603l0.074,11.41l17.672-0.046l-0.085-11.396c4.821-1.184,8.982-3.311,12.371-6.318
		c5.833-4.985,8.769-11.452,8.723-19.203C136.301,115.822,133.771,110.105,128.977,105.766z"/>
</g>
<g>
</g>
<g>
</g>
<g>
</g>
<g>
</g>
<g>
</g>
<g>
</g>
<g>
</g>
<g>
</g>
<g>
</g>
<g>
</g>
<g>
</g>
<g>
</g>
<g>
</g>
<g>
</g>
<g>
</g>
</svg>
