
    <svg width="12" height="12" viewBox="0 0 12 12" fill="none" xmlns="http://www.w3.org/2000/svg">
        <path
                d="M11.5061 3.58298C11.4538 3.58298 11.4002 3.59043 11.3467 3.60523L10.7411 3.77206L10.1123 2.24018C9.93417 1.80617 9.40751 1.45312 8.9384 1.45312H3.05314C2.58397 1.45312 2.05736 1.80617 1.87926 2.24018L1.25122 3.76997L0.653238 3.60523C0.59977 3.59048 0.546099 3.58298 0.493908 3.58298C0.207746 3.58298 0 3.8016 0 4.10286V4.45994C0 4.8116 0.286059 5.09766 0.637728 5.09766H0.706194L0.604719 5.3449C0.439216 5.74815 0.304579 6.43072 0.304579 6.86657V9.90986C0.304579 10.2615 0.590689 10.5476 0.942307 10.5476H1.77523C2.1269 10.5476 2.41296 10.2615 2.41296 9.90986V9.14984H9.57867V9.90986C9.57867 10.2615 9.86473 10.5476 10.2164 10.5476H11.0493C11.4009 10.5476 11.687 10.2615 11.687 9.90986V6.86657C11.687 6.43077 11.5524 5.74815 11.3868 5.3449L11.2853 5.09766H11.3623C11.7139 5.09766 12 4.8116 12 4.45994V4.10286C12 3.8016 11.7923 3.58298 11.5061 3.58298ZM1.70855 4.75125L2.65978 2.43415C2.76636 2.17457 3.08313 1.96219 3.36373 1.96219H8.6279C8.9085 1.96219 9.22527 2.17457 9.3318 2.43415L10.283 4.75125C10.3896 5.01083 10.2472 5.22322 9.96662 5.22322H2.02502C1.74442 5.22322 1.60202 5.01083 1.70855 4.75125ZM3.83208 7.68204C3.83208 7.82234 3.71729 7.93714 3.57699 7.93714H1.76992C1.62962 7.93714 1.51483 7.82234 1.51483 7.68204V6.81479C1.51483 6.67449 1.62962 6.55969 1.76992 6.55969H3.57699C3.71729 6.55969 3.83208 6.67449 3.83208 6.81479V7.68204ZM10.4597 7.68204C10.4597 7.82234 10.3449 7.93714 10.2046 7.93714H8.39755C8.25725 7.93714 8.14246 7.82234 8.14246 7.68204V6.81479C8.14246 6.67449 8.25725 6.55969 8.39755 6.55969H10.2046C10.3449 6.55969 10.4597 6.67449 10.4597 6.81479V7.68204Z"
                fill="#808080" data-darkreader-inline-fill="" style="--darkreader-inline-fill:#988f81;"></path>
    </svg>
