<svg width="10" height="10" viewBox="0 0 10 10" fill="none" xmlns="http://www.w3.org/2000/svg"><path d="M4.85014 4.74198C4.77291 4.79693 4.72656 4.88618 4.72656 4.98089C4.72656 5.14253 4.85789 5.27385 5.01953 5.27385C5.11424 5.27385 5.2035 5.22751 5.25842 5.15026L6.26213 3.73828L4.85014 4.74198Z" fill="#808080" data-darkreader-inline-fill="" style="--darkreader-inline-fill:#988f81;"></path><path d="M5.60547 7.65625H4.39453C4.23289 7.65625 4.10156 7.78758 4.10156 7.94922C4.10156 8.11086 4.23289 8.24219 4.39453 8.24219H5.60547C5.76711 8.24219 5.89844 8.11086 5.89844 7.94922C5.89844 7.78758 5.76711 7.65625 5.60547 7.65625Z" fill="#808080" data-darkreader-inline-fill="" style="--darkreader-inline-fill:#988f81;"></path><path d="M5.01953 0C2.27324 0 0 2.23418 0 4.98047C0 7.72676 2.23418 10 4.98047 10C7.72676 10 10 7.72676 10 4.98047C10 2.23418 7.76582 0 5.01953 0ZM5.60547 8.82812H4.39453C3.90988 8.82812 3.51562 8.43387 3.51562 7.94922C3.51562 7.46457 3.90988 7.07031 4.39453 7.07031H5.60547C6.09012 7.07031 6.48438 7.46457 6.48438 7.94922C6.48438 8.43387 6.09012 8.82812 5.60547 8.82812ZM7.71146 7.71146C7.59703 7.8259 7.41162 7.8259 7.29719 7.71146L6.88291 7.29719C6.76848 7.18275 6.76848 6.99734 6.88291 6.88291C6.99734 6.76848 7.18275 6.76848 7.29719 6.88291L7.49518 7.0809C7.91592 6.57779 8.15775 5.92496 8.2168 5.27344H7.94922C7.78729 5.27344 7.65625 5.1424 7.65625 4.98047C7.65625 4.81854 7.78729 4.6875 7.94922 4.6875H8.22734C8.16855 4.03898 7.91707 3.44596 7.53039 2.9652L5.73621 5.48916C5.57143 5.7209 5.30363 5.85938 5.01953 5.85938C4.53488 5.85938 4.14062 5.46512 4.14062 4.98047C4.14062 4.69637 4.2791 4.42857 4.51084 4.26379L7.0348 2.46961C6.57771 2.10197 6.01916 1.85654 5.40793 1.78273C5.37627 1.77891 5.34445 1.77555 5.3125 1.77266V2.05078C5.3125 2.21271 5.18146 2.34375 5.01953 2.34375C4.8576 2.34375 4.72656 2.21271 4.72656 2.05078V1.77266C4.05775 1.8333 3.40826 2.09811 2.91979 2.50551L3.11709 2.70281C3.23152 2.81725 3.23152 3.00266 3.11709 3.11709C3.00264 3.23154 2.81727 3.23154 2.70281 3.11709L2.50551 2.91979C2.09809 3.40826 1.8333 4.01869 1.77266 4.6875H2.05078C2.21271 4.6875 2.34375 4.81854 2.34375 4.98047C2.34375 5.1424 2.21271 5.27344 2.05078 5.27344H1.78312C1.84203 5.92594 2.08361 6.5791 2.50367 7.08205L2.70279 6.88293C2.81723 6.7685 3.00264 6.7685 3.11707 6.88293C3.2315 6.99736 3.2315 7.18277 3.11707 7.29721L2.70164 7.71264C2.58719 7.82709 2.40182 7.82709 2.28736 7.71264C1.56813 6.99336 1.17188 5.99785 1.17188 4.98047C1.17188 2.88598 2.91547 1.17188 5.01953 1.17188C7.11594 1.17188 8.82812 2.88434 8.82812 4.98047C8.82812 5.99643 8.43158 6.99135 7.71146 7.71146Z" fill="#808080" data-darkreader-inline-fill="" style="--darkreader-inline-fill:#988f81;"></path></svg>