<svg width="10" height="10" viewBox="0 0 10 10" fill="none" xmlns="http://www.w3.org/2000/svg"><path d="M2.83083 2.67597C2.83083 2.8201 2.9599 2.93694 3.11913 2.93694C3.27837 2.93694 3.40744 2.8201 3.40744 2.67597V1.093C3.40744 0.948864 3.27837 0.832031 3.11913 0.832031C2.9599 0.832031 2.83083 0.948864 2.83083 1.093V2.67597Z" fill="#808080" data-darkreader-inline-fill="" style="--darkreader-inline-fill:#988f81;"></path><path d="M6.59282 2.67597C6.59282 2.8201 6.72189 2.93694 6.88113 2.93694C7.04037 2.93694 7.16945 2.8201 7.16945 2.67597V1.093C7.16945 0.948864 7.04037 0.832031 6.88113 0.832031C6.72189 0.832031 6.59282 0.948864 6.59282 1.093V2.67597Z" fill="#808080" data-darkreader-inline-fill="" style="--darkreader-inline-fill:#988f81;"></path><path d="M0.833496 4.45129V8.05215C0.833496 8.66598 1.38519 9.16537 2.06333 9.16537H7.93699C8.61513 9.16537 9.16683 8.66598 9.16683 8.05215V4.45129H0.833496Z" fill="#808080" data-darkreader-inline-fill="" style="--darkreader-inline-fill:#988f81;"></path><path d="M9.16681 2.73749V3.93138H0.833496V2.73747C0.833496 2.12364 1.38519 1.62425 2.06333 1.62425H2.25446V2.6767C2.25446 3.10841 2.64245 3.45961 3.11939 3.45961C3.59632 3.45961 3.98432 3.10841 3.98432 2.6767V1.62425H6.01601V2.67671C6.01601 3.10843 6.404 3.45963 6.88094 3.45963C7.35787 3.45963 7.74586 3.10843 7.74586 2.67671V1.62427H7.93698C8.61511 1.62427 9.16681 2.12365 9.16681 2.73749Z" fill="#808080" data-darkreader-inline-fill="" style="--darkreader-inline-fill:#988f81;"></path></svg>