<svg width="80" height="38" viewBox="0 0 80 38" fill="none" xmlns="http://www.w3.org/2000/svg">
    <path d="M58.0751 32.9582L58.0844 35.1101C58.5093 34.7633 59.0202 34.3461 59.6079 33.8659C61.4536 32.3577 63.9782 30.2924 66.7373 28.0332C67.8484 27.1234 68.9383 26.2309 69.9752 25.3818C74.0622 22.035 77.3254 19.3627 77.8153 18.9682C77.8576 18.9333 77.8994 18.8986 77.9406 18.8642C77.3341 18.3721 76.4714 17.6743 75.4364 16.8383C73.3629 15.1634 70.601 12.9363 67.831 10.7049C65.0609 8.47347 62.2833 6.23813 60.1785 4.54673C59.3673 3.89492 58.6564 3.32415 58.0845 2.86561L58.0751 5.04185L58.0751 5.04401L58.0626 9.37935L58.0583 10.875H56.5626H28.5563C26.61 10.875 24.7969 10.8749 23.1078 10.8748C11.5383 10.8742 5.78886 10.8739 2.92996 10.9085C2.33241 10.9157 1.87686 10.9247 1.53088 10.9343C1.52517 11.4061 1.52018 12.0022 1.51596 12.6889C1.50534 14.4177 1.49968 16.7067 1.49929 18.9972C1.4989 21.2876 1.50378 23.5765 1.5142 25.305C1.51842 26.0042 1.52353 26.6093 1.52952 27.0847C2.2267 27.0949 3.32489 27.1028 5.04113 27.1086C8.92389 27.1219 15.9333 27.125 28.5251 27.125H56.5626H58.0583L58.0626 28.6207L58.0751 32.956L58.0751 32.9582ZM0.531551 10.9884C0.523601 10.9898 0.525981 10.9898 0.536739 10.9876C0.534958 10.9879 0.533229 10.9881 0.531551 10.9884ZM1.57016 9.6102C1.57047 9.61814 1.57095 9.63028 1.57123 9.64614C1.57343 9.57404 1.56808 9.54886 1.56993 9.60412C1.56998 9.60574 1.57006 9.60778 1.57016 9.6102Z" stroke="#4E70AB" stroke-width="3"/>
</svg>
