<svg width="13" height="13" viewBox="0 0 13 13" fill="none" xmlns="http://www.w3.org/2000/svg">
    <path d="M11.0769 6H6.92308C6.41328 6 6 6.41328 6 6.92308V11.0769C6 11.5867 6.41328 12 6.92308 12H11.0769C11.5867 12 12 11.5867 12 11.0769V6.92308C12 6.41328 11.5867 6 11.0769 6Z" fill="#33AA7E" stroke="#33AA7E" stroke-width="1.5" stroke-linecap="round" stroke-linejoin="round"/>
    <path d="M2.38462 7H1.92308C1.67826 7 1.44347 6.90275 1.27036 6.72964C1.09725 6.55653 1 6.32174 1 6.07692V1.92308C1 1.67826 1.09725 1.44347 1.27036 1.27036C1.44347 1.09725 1.67826 1 1.92308 1H6.07692C6.32174 1 6.55653 1.09725 6.72964 1.27036C6.90275 1.44347 7 1.67826 7 1.92308V2.38462" stroke="#33AA7E" stroke-width="1.5" stroke-linecap="round" stroke-linejoin="round"/>
</svg>
