<svg width="16" height="16" viewBox="0 0 16 16" fill="none" xmlns="http://www.w3.org/2000/svg">
    <path d="M13.5719 7.3913H8.51504C7.89441 7.3913 7.3913 7.89441 7.3913 8.51504V13.5719C7.3913 14.1925 7.89441 14.6956 8.51504 14.6956H13.5719C14.1925 14.6956 14.6956 14.1925 14.6956 13.5719V8.51504C14.6956 7.89441 14.1925 7.3913 13.5719 7.3913Z" fill="white" stroke="white" stroke-width="1.5" stroke-linecap="round" stroke-linejoin="round"/>
    <path d="M2.98994 8.60868H2.42807C2.13003 8.60868 1.8442 8.49029 1.63346 8.27955C1.42272 8.0688 1.30432 7.78297 1.30432 7.48494V2.42808C1.30432 2.13005 1.42272 1.84422 1.63346 1.63347C1.8442 1.42273 2.13003 1.30434 2.42807 1.30434H7.48492C7.78296 1.30434 8.06879 1.42273 8.27953 1.63347C8.49027 1.84422 8.60867 2.13005 8.60867 2.42808V2.98996" stroke="white" stroke-width="1.5" stroke-linecap="round" stroke-linejoin="round"/>
</svg>
