<svg width="20" height="20" viewBox="0 0 20 20" fill="none" xmlns="http://www.w3.org/2000/svg">
    <mask id="mask0" mask-type="alpha" maskUnits="userSpaceOnUse" x="0" y="0" width="20" height="20">
        <path d="M10 20C15.5228 20 20 15.5228 20 10C20 4.47715 15.5228 0 10 0C4.47715 0 0 4.47715 0 10C0 15.5228 4.47715 20 10 20Z" fill="#F0F0F0"/>
    </mask>
    <g mask="url(#mask0)">
        <mask id="mask1" mask-type="alpha" maskUnits="userSpaceOnUse" x="-4" y="0" width="28" height="20">
            <path d="M22 0H-2C-3.10457 0 -4 0.89543 -4 2V18C-4 19.1046 -3.10457 20 -2 20H22C23.1046 20 24 19.1046 24 18V2C24 0.89543 23.1046 0 22 0Z" fill="white"/>
        </mask>
        <g mask="url(#mask1)">
            <path d="M21.9636 0H-1.96364C-3.08829 0 -4 0.91839 -4 2.05128V17.9487C-4 19.0816 -3.08829 20 -1.96364 20H21.9636C23.0883 20 24 19.0816 24 17.9487V2.05128C24 0.91839 23.0883 0 21.9636 0Z" fill="white"/>
            <path d="M24 6.66666H-4V13.3333H24V6.66666Z" fill="#0C47B7"/>
            <path d="M24 13.3333H-4V20H24V13.3333Z" fill="#E53B35"/>
            <mask id="mask2" mask-type="alpha" maskUnits="userSpaceOnUse" x="-4" y="0" width="28" height="20">
                <path d="M24 0H-4V20H24V0Z" fill="white"/>
            </mask>
            <g mask="url(#mask2)">
                <path d="M24 0H-4V20H24V0Z" fill="white"/>
                <path fill-rule="evenodd" clip-rule="evenodd" d="M-4 0H24V1.82H-4V0ZM-4 3.64H24V5.46H-4V3.64ZM-4 7.28H24V9.1H-4V7.28ZM-4 10.92H24V12.74H-4V10.92ZM-4 14.56H24V16.38H-4V14.56ZM-4 18.2H24V20.02H-4V18.2Z" fill="#D02F44"/>
                <path d="M8 0H-4V9.1H8V0Z" fill="#46467F"/>
                <g filter="url(#filter0_d)">
                    <path d="M-2.00008 2.66671C-2.36827 2.66671 -2.66675 2.36823 -2.66675 2.00004C-2.66675 1.63185 -2.36827 1.33337 -2.00008 1.33337C-1.63189 1.33337 -1.33341 1.63185 -1.33341 2.00004C-1.33341 2.36823 -1.63189 2.66671 -2.00008 2.66671ZM0.666585 2.66671C0.298395 2.66671 -8.13007e-05 2.36823 -8.13007e-05 2.00004C-8.13007e-05 1.63185 0.298395 1.33337 0.666585 1.33337C1.03478 1.33337 1.33325 1.63185 1.33325 2.00004C1.33325 2.36823 1.03478 2.66671 0.666585 2.66671ZM3.33325 2.66671C2.96506 2.66671 2.66659 2.36823 2.66659 2.00004C2.66659 1.63185 2.96506 1.33337 3.33325 1.33337C3.70144 1.33337 3.99992 1.63185 3.99992 2.00004C3.99992 2.36823 3.70144 2.66671 3.33325 2.66671ZM5.99992 2.66671C5.63173 2.66671 5.33325 2.36823 5.33325 2.00004C5.33325 1.63185 5.63173 1.33337 5.99992 1.33337C6.36811 1.33337 6.66659 1.63185 6.66659 2.00004C6.66659 2.36823 6.36811 2.66671 5.99992 2.66671ZM-0.666748 4.00004C-1.03494 4.00004 -1.33341 3.70156 -1.33341 3.33337C-1.33341 2.96518 -1.03494 2.66671 -0.666748 2.66671C-0.298558 2.66671 -8.13007e-05 2.96518 -8.13007e-05 3.33337C-8.13007e-05 3.70156 -0.298558 4.00004 -0.666748 4.00004ZM1.99992 4.00004C1.63173 4.00004 1.33325 3.70156 1.33325 3.33337C1.33325 2.96518 1.63173 2.66671 1.99992 2.66671C2.36811 2.66671 2.66659 2.96518 2.66659 3.33337C2.66659 3.70156 2.36811 4.00004 1.99992 4.00004ZM4.66659 4.00004C4.2984 4.00004 3.99992 3.70156 3.99992 3.33337C3.99992 2.96518 4.2984 2.66671 4.66659 2.66671C5.03478 2.66671 5.33325 2.96518 5.33325 3.33337C5.33325 3.70156 5.03478 4.00004 4.66659 4.00004ZM5.99992 5.33337C5.63173 5.33337 5.33325 5.0349 5.33325 4.66671C5.33325 4.29852 5.63173 4.00004 5.99992 4.00004C6.36811 4.00004 6.66659 4.29852 6.66659 4.66671C6.66659 5.0349 6.36811 5.33337 5.99992 5.33337ZM3.33325 5.33337C2.96506 5.33337 2.66659 5.0349 2.66659 4.66671C2.66659 4.29852 2.96506 4.00004 3.33325 4.00004C3.70144 4.00004 3.99992 4.29852 3.99992 4.66671C3.99992 5.0349 3.70144 5.33337 3.33325 5.33337ZM0.666585 5.33337C0.298395 5.33337 -8.13007e-05 5.0349 -8.13007e-05 4.66671C-8.13007e-05 4.29852 0.298395 4.00004 0.666585 4.00004C1.03478 4.00004 1.33325 4.29852 1.33325 4.66671C1.33325 5.0349 1.03478 5.33337 0.666585 5.33337ZM-2.00008 5.33337C-2.36827 5.33337 -2.66675 5.0349 -2.66675 4.66671C-2.66675 4.29852 -2.36827 4.00004 -2.00008 4.00004C-1.63189 4.00004 -1.33341 4.29852 -1.33341 4.66671C-1.33341 5.0349 -1.63189 5.33337 -2.00008 5.33337ZM-0.666748 6.66671C-1.03494 6.66671 -1.33341 6.36823 -1.33341 6.00004C-1.33341 5.63185 -1.03494 5.33337 -0.666748 5.33337C-0.298558 5.33337 -8.13007e-05 5.63185 -8.13007e-05 6.00004C-8.13007e-05 6.36823 -0.298558 6.66671 -0.666748 6.66671ZM1.99992 6.66671C1.63173 6.66671 1.33325 6.36823 1.33325 6.00004C1.33325 5.63185 1.63173 5.33337 1.99992 5.33337C2.36811 5.33337 2.66659 5.63185 2.66659 6.00004C2.66659 6.36823 2.36811 6.66671 1.99992 6.66671ZM4.66659 6.66671C4.2984 6.66671 3.99992 6.36823 3.99992 6.00004C3.99992 5.63185 4.2984 5.33337 4.66659 5.33337C5.03478 5.33337 5.33325 5.63185 5.33325 6.00004C5.33325 6.36823 5.03478 6.66671 4.66659 6.66671ZM5.99992 8.00004C5.63173 8.00004 5.33325 7.70156 5.33325 7.33337C5.33325 6.96518 5.63173 6.66671 5.99992 6.66671C6.36811 6.66671 6.66659 6.96518 6.66659 7.33337C6.66659 7.70156 6.36811 8.00004 5.99992 8.00004ZM3.33325 8.00004C2.96506 8.00004 2.66659 7.70156 2.66659 7.33337C2.66659 6.96518 2.96506 6.66671 3.33325 6.66671C3.70144 6.66671 3.99992 6.96518 3.99992 7.33337C3.99992 7.70156 3.70144 8.00004 3.33325 8.00004ZM0.666585 8.00004C0.298395 8.00004 -8.13007e-05 7.70156 -8.13007e-05 7.33337C-8.13007e-05 6.96518 0.298395 6.66671 0.666585 6.66671C1.03478 6.66671 1.33325 6.96518 1.33325 7.33337C1.33325 7.70156 1.03478 8.00004 0.666585 8.00004ZM-2.00008 8.00004C-2.36827 8.00004 -2.66675 7.70156 -2.66675 7.33337C-2.66675 6.96518 -2.36827 6.66671 -2.00008 6.66671C-1.63189 6.66671 -1.33341 6.96518 -1.33341 7.33337C-1.33341 7.70156 -1.63189 8.00004 -2.00008 8.00004Z" fill="black"/>
                </g>
                <path d="M-2.00008 2.66671C-2.36827 2.66671 -2.66675 2.36823 -2.66675 2.00004C-2.66675 1.63185 -2.36827 1.33337 -2.00008 1.33337C-1.63189 1.33337 -1.33341 1.63185 -1.33341 2.00004C-1.33341 2.36823 -1.63189 2.66671 -2.00008 2.66671ZM0.666585 2.66671C0.298395 2.66671 -8.13007e-05 2.36823 -8.13007e-05 2.00004C-8.13007e-05 1.63185 0.298395 1.33337 0.666585 1.33337C1.03478 1.33337 1.33325 1.63185 1.33325 2.00004C1.33325 2.36823 1.03478 2.66671 0.666585 2.66671ZM3.33325 2.66671C2.96506 2.66671 2.66659 2.36823 2.66659 2.00004C2.66659 1.63185 2.96506 1.33337 3.33325 1.33337C3.70144 1.33337 3.99992 1.63185 3.99992 2.00004C3.99992 2.36823 3.70144 2.66671 3.33325 2.66671ZM5.99992 2.66671C5.63173 2.66671 5.33325 2.36823 5.33325 2.00004C5.33325 1.63185 5.63173 1.33337 5.99992 1.33337C6.36811 1.33337 6.66659 1.63185 6.66659 2.00004C6.66659 2.36823 6.36811 2.66671 5.99992 2.66671ZM-0.666748 4.00004C-1.03494 4.00004 -1.33341 3.70156 -1.33341 3.33337C-1.33341 2.96518 -1.03494 2.66671 -0.666748 2.66671C-0.298558 2.66671 -8.13007e-05 2.96518 -8.13007e-05 3.33337C-8.13007e-05 3.70156 -0.298558 4.00004 -0.666748 4.00004ZM1.99992 4.00004C1.63173 4.00004 1.33325 3.70156 1.33325 3.33337C1.33325 2.96518 1.63173 2.66671 1.99992 2.66671C2.36811 2.66671 2.66659 2.96518 2.66659 3.33337C2.66659 3.70156 2.36811 4.00004 1.99992 4.00004ZM4.66659 4.00004C4.2984 4.00004 3.99992 3.70156 3.99992 3.33337C3.99992 2.96518 4.2984 2.66671 4.66659 2.66671C5.03478 2.66671 5.33325 2.96518 5.33325 3.33337C5.33325 3.70156 5.03478 4.00004 4.66659 4.00004ZM5.99992 5.33337C5.63173 5.33337 5.33325 5.0349 5.33325 4.66671C5.33325 4.29852 5.63173 4.00004 5.99992 4.00004C6.36811 4.00004 6.66659 4.29852 6.66659 4.66671C6.66659 5.0349 6.36811 5.33337 5.99992 5.33337ZM3.33325 5.33337C2.96506 5.33337 2.66659 5.0349 2.66659 4.66671C2.66659 4.29852 2.96506 4.00004 3.33325 4.00004C3.70144 4.00004 3.99992 4.29852 3.99992 4.66671C3.99992 5.0349 3.70144 5.33337 3.33325 5.33337ZM0.666585 5.33337C0.298395 5.33337 -8.13007e-05 5.0349 -8.13007e-05 4.66671C-8.13007e-05 4.29852 0.298395 4.00004 0.666585 4.00004C1.03478 4.00004 1.33325 4.29852 1.33325 4.66671C1.33325 5.0349 1.03478 5.33337 0.666585 5.33337ZM-2.00008 5.33337C-2.36827 5.33337 -2.66675 5.0349 -2.66675 4.66671C-2.66675 4.29852 -2.36827 4.00004 -2.00008 4.00004C-1.63189 4.00004 -1.33341 4.29852 -1.33341 4.66671C-1.33341 5.0349 -1.63189 5.33337 -2.00008 5.33337ZM-0.666748 6.66671C-1.03494 6.66671 -1.33341 6.36823 -1.33341 6.00004C-1.33341 5.63185 -1.03494 5.33337 -0.666748 5.33337C-0.298558 5.33337 -8.13007e-05 5.63185 -8.13007e-05 6.00004C-8.13007e-05 6.36823 -0.298558 6.66671 -0.666748 6.66671ZM1.99992 6.66671C1.63173 6.66671 1.33325 6.36823 1.33325 6.00004C1.33325 5.63185 1.63173 5.33337 1.99992 5.33337C2.36811 5.33337 2.66659 5.63185 2.66659 6.00004C2.66659 6.36823 2.36811 6.66671 1.99992 6.66671ZM4.66659 6.66671C4.2984 6.66671 3.99992 6.36823 3.99992 6.00004C3.99992 5.63185 4.2984 5.33337 4.66659 5.33337C5.03478 5.33337 5.33325 5.63185 5.33325 6.00004C5.33325 6.36823 5.03478 6.66671 4.66659 6.66671ZM5.99992 8.00004C5.63173 8.00004 5.33325 7.70156 5.33325 7.33337C5.33325 6.96518 5.63173 6.66671 5.99992 6.66671C6.36811 6.66671 6.66659 6.96518 6.66659 7.33337C6.66659 7.70156 6.36811 8.00004 5.99992 8.00004ZM3.33325 8.00004C2.96506 8.00004 2.66659 7.70156 2.66659 7.33337C2.66659 6.96518 2.96506 6.66671 3.33325 6.66671C3.70144 6.66671 3.99992 6.96518 3.99992 7.33337C3.99992 7.70156 3.70144 8.00004 3.33325 8.00004ZM0.666585 8.00004C0.298395 8.00004 -8.13007e-05 7.70156 -8.13007e-05 7.33337C-8.13007e-05 6.96518 0.298395 6.66671 0.666585 6.66671C1.03478 6.66671 1.33325 6.96518 1.33325 7.33337C1.33325 7.70156 1.03478 8.00004 0.666585 8.00004ZM-2.00008 8.00004C-2.36827 8.00004 -2.66675 7.70156 -2.66675 7.33337C-2.66675 6.96518 -2.36827 6.66671 -2.00008 6.66671C-1.63189 6.66671 -1.33341 6.96518 -1.33341 7.33337C-1.33341 7.70156 -1.63189 8.00004 -2.00008 8.00004Z" fill="url(#paint0_linear)"/>
            </g>
            <g clip-path="url(#clip0)">
                <path d="M-12.5299 -1H32.5901V21.0587H-12.5299V-1Z" fill="#012169"/>
                <path d="M-12.5299 -1V1.46437L27.5449 21.0587H32.5901V18.5943L-7.48475 -1H-12.5299ZM32.5901 -1V1.46437L-7.48475 21.0587H-12.5299V18.5943L27.5449 -1H32.5901Z" fill="white"/>
                <path d="M6.27156 -1V21.0587H13.7886V-1H6.27156ZM-12.5299 6.35432V13.7043H32.5901V6.35432H-12.5299Z" fill="white"/>
                <path d="M-12.5299 7.82346V12.2352H32.5901V7.82346H-12.5299ZM7.77409 -1V21.0587H12.2861V-1H7.77409ZM-12.5299 21.0587L2.50862 13.7043H5.875L-9.16794 21.0587H-12.5299ZM-12.5299 -1L2.50862 6.35432H-0.853347L-12.5299 0.645783V-1ZM14.1896 6.35432L29.2281 -1H32.5901L17.5516 6.35432H14.1896ZM32.5901 21.0587L17.5516 13.7043H20.9135L32.5901 19.4129V21.0587Z" fill="#C8102E"/>
            </g>
        </g>
    </g>
    <defs>
        <filter id="filter0_d" x="-6.66675" y="-1.66663" width="17.3333" height="14.6667" filterUnits="userSpaceOnUse" color-interpolation-filters="sRGB">
            <feFlood flood-opacity="0" result="BackgroundImageFix"/>
            <feColorMatrix in="SourceAlpha" type="matrix" values="0 0 0 0 0 0 0 0 0 0 0 0 0 0 0 0 0 0 127 0"/>
            <feOffset dy="1"/>
            <feGaussianBlur stdDeviation="2"/>
            <feColorMatrix type="matrix" values="0 0 0 0 0 0 0 0 0 0 0 0 0 0 0 0 0 0 0.06 0"/>
            <feBlend mode="normal" in2="BackgroundImageFix" result="effect1_dropShadow"/>
            <feBlend mode="normal" in="SourceGraphic" in2="effect1_dropShadow" result="shape"/>
        </filter>
        <linearGradient id="paint0_linear" x1="1.99992" y1="1.33337" x2="1.99992" y2="8.00004" gradientUnits="userSpaceOnUse">
            <stop stop-color="white"/>
            <stop offset="1" stop-color="#F0F0F0"/>
        </linearGradient>
        <clipPath id="clip0">
            <rect width="30" height="22" fill="white" transform="translate(-5 -1)"/>
        </clipPath>
    </defs>
</svg>
