<svg width="28" height="20" viewBox="0 0 28 20" fill="none" xmlns="http://www.w3.org/2000/svg">
    <mask id="mask0" mask-type="alpha" maskUnits="userSpaceOnUse" x="0" y="0" width="28" height="20">
        <path d="M26 0H2C0.89543 0 0 0.89543 0 2V18C0 19.1046 0.89543 20 2 20H26C27.1046 20 28 19.1046 28 18V2C28 0.89543 27.1046 0 26 0Z" fill="white"/>
    </mask>
    <g mask="url(#mask0)">
        <path d="M25.9636 0H2.03636C0.911711 0 0 0.91839 0 2.05128V17.9487C0 19.0816 0.911711 20 2.03636 20H25.9636C27.0883 20 28 19.0816 28 17.9487V2.05128C28 0.91839 27.0883 0 25.9636 0Z" fill="white"/>
        <path d="M28 6.66667H0V13.3333H28V6.66667Z" fill="#0C47B7"/>
        <path d="M28 13.3333H0V20H28V13.3333Z" fill="#E53B35"/>
        <mask id="mask1" mask-type="alpha" maskUnits="userSpaceOnUse" x="0" y="0" width="28" height="20">
            <path d="M28 0H0V20H28V0Z" fill="white"/>
        </mask>
        <g mask="url(#mask1)">
            <path d="M28 0H0V20H28V0Z" fill="white"/>
            <path fill-rule="evenodd" clip-rule="evenodd" d="M0 0H28V1.82H0V0ZM0 3.64H28V5.46H0V3.64ZM0 7.28H28V9.1H0V7.28ZM0 10.92H28V12.74H0V10.92ZM0 14.56H28V16.38H0V14.56ZM0 18.2H28V20.02H0V18.2Z" fill="#D02F44"/>
            <path d="M12 0H0V9.1H12V0Z" fill="#46467F"/>
            <g filter="url(#filter0_d)">
                <path d="M1.99992 2.66671C1.63173 2.66671 1.33325 2.36823 1.33325 2.00004C1.33325 1.63185 1.63173 1.33337 1.99992 1.33337C2.36811 1.33337 2.66659 1.63185 2.66659 2.00004C2.66659 2.36823 2.36811 2.66671 1.99992 2.66671ZM4.66659 2.66671C4.2984 2.66671 3.99992 2.36823 3.99992 2.00004C3.99992 1.63185 4.2984 1.33337 4.66659 1.33337C5.03478 1.33337 5.33325 1.63185 5.33325 2.00004C5.33325 2.36823 5.03478 2.66671 4.66659 2.66671ZM7.33325 2.66671C6.96506 2.66671 6.66659 2.36823 6.66659 2.00004C6.66659 1.63185 6.96506 1.33337 7.33325 1.33337C7.70144 1.33337 7.99992 1.63185 7.99992 2.00004C7.99992 2.36823 7.70144 2.66671 7.33325 2.66671ZM9.99992 2.66671C9.63173 2.66671 9.33325 2.36823 9.33325 2.00004C9.33325 1.63185 9.63173 1.33337 9.99992 1.33337C10.3681 1.33337 10.6666 1.63185 10.6666 2.00004C10.6666 2.36823 10.3681 2.66671 9.99992 2.66671ZM3.33325 4.00004C2.96506 4.00004 2.66659 3.70156 2.66659 3.33337C2.66659 2.96518 2.96506 2.66671 3.33325 2.66671C3.70144 2.66671 3.99992 2.96518 3.99992 3.33337C3.99992 3.70156 3.70144 4.00004 3.33325 4.00004ZM5.99992 4.00004C5.63173 4.00004 5.33325 3.70156 5.33325 3.33337C5.33325 2.96518 5.63173 2.66671 5.99992 2.66671C6.36811 2.66671 6.66659 2.96518 6.66659 3.33337C6.66659 3.70156 6.36811 4.00004 5.99992 4.00004ZM8.66659 4.00004C8.2984 4.00004 7.99992 3.70156 7.99992 3.33337C7.99992 2.96518 8.2984 2.66671 8.66659 2.66671C9.03478 2.66671 9.33325 2.96518 9.33325 3.33337C9.33325 3.70156 9.03478 4.00004 8.66659 4.00004ZM9.99992 5.33337C9.63173 5.33337 9.33325 5.0349 9.33325 4.66671C9.33325 4.29852 9.63173 4.00004 9.99992 4.00004C10.3681 4.00004 10.6666 4.29852 10.6666 4.66671C10.6666 5.0349 10.3681 5.33337 9.99992 5.33337ZM7.33325 5.33337C6.96506 5.33337 6.66659 5.0349 6.66659 4.66671C6.66659 4.29852 6.96506 4.00004 7.33325 4.00004C7.70144 4.00004 7.99992 4.29852 7.99992 4.66671C7.99992 5.0349 7.70144 5.33337 7.33325 5.33337ZM4.66659 5.33337C4.2984 5.33337 3.99992 5.0349 3.99992 4.66671C3.99992 4.29852 4.2984 4.00004 4.66659 4.00004C5.03478 4.00004 5.33325 4.29852 5.33325 4.66671C5.33325 5.0349 5.03478 5.33337 4.66659 5.33337ZM1.99992 5.33337C1.63173 5.33337 1.33325 5.0349 1.33325 4.66671C1.33325 4.29852 1.63173 4.00004 1.99992 4.00004C2.36811 4.00004 2.66659 4.29852 2.66659 4.66671C2.66659 5.0349 2.36811 5.33337 1.99992 5.33337ZM3.33325 6.66671C2.96506 6.66671 2.66659 6.36823 2.66659 6.00004C2.66659 5.63185 2.96506 5.33337 3.33325 5.33337C3.70144 5.33337 3.99992 5.63185 3.99992 6.00004C3.99992 6.36823 3.70144 6.66671 3.33325 6.66671ZM5.99992 6.66671C5.63173 6.66671 5.33325 6.36823 5.33325 6.00004C5.33325 5.63185 5.63173 5.33337 5.99992 5.33337C6.36811 5.33337 6.66659 5.63185 6.66659 6.00004C6.66659 6.36823 6.36811 6.66671 5.99992 6.66671ZM8.66659 6.66671C8.2984 6.66671 7.99992 6.36823 7.99992 6.00004C7.99992 5.63185 8.2984 5.33337 8.66659 5.33337C9.03478 5.33337 9.33325 5.63185 9.33325 6.00004C9.33325 6.36823 9.03478 6.66671 8.66659 6.66671ZM9.99992 8.00004C9.63173 8.00004 9.33325 7.70156 9.33325 7.33337C9.33325 6.96518 9.63173 6.66671 9.99992 6.66671C10.3681 6.66671 10.6666 6.96518 10.6666 7.33337C10.6666 7.70156 10.3681 8.00004 9.99992 8.00004ZM7.33325 8.00004C6.96506 8.00004 6.66659 7.70156 6.66659 7.33337C6.66659 6.96518 6.96506 6.66671 7.33325 6.66671C7.70144 6.66671 7.99992 6.96518 7.99992 7.33337C7.99992 7.70156 7.70144 8.00004 7.33325 8.00004ZM4.66659 8.00004C4.2984 8.00004 3.99992 7.70156 3.99992 7.33337C3.99992 6.96518 4.2984 6.66671 4.66659 6.66671C5.03478 6.66671 5.33325 6.96518 5.33325 7.33337C5.33325 7.70156 5.03478 8.00004 4.66659 8.00004ZM1.99992 8.00004C1.63173 8.00004 1.33325 7.70156 1.33325 7.33337C1.33325 6.96518 1.63173 6.66671 1.99992 6.66671C2.36811 6.66671 2.66659 6.96518 2.66659 7.33337C2.66659 7.70156 2.36811 8.00004 1.99992 8.00004Z" fill="black"/>
            </g>
            <path d="M1.99992 2.66671C1.63173 2.66671 1.33325 2.36823 1.33325 2.00004C1.33325 1.63185 1.63173 1.33337 1.99992 1.33337C2.36811 1.33337 2.66659 1.63185 2.66659 2.00004C2.66659 2.36823 2.36811 2.66671 1.99992 2.66671ZM4.66659 2.66671C4.2984 2.66671 3.99992 2.36823 3.99992 2.00004C3.99992 1.63185 4.2984 1.33337 4.66659 1.33337C5.03478 1.33337 5.33325 1.63185 5.33325 2.00004C5.33325 2.36823 5.03478 2.66671 4.66659 2.66671ZM7.33325 2.66671C6.96506 2.66671 6.66659 2.36823 6.66659 2.00004C6.66659 1.63185 6.96506 1.33337 7.33325 1.33337C7.70144 1.33337 7.99992 1.63185 7.99992 2.00004C7.99992 2.36823 7.70144 2.66671 7.33325 2.66671ZM9.99992 2.66671C9.63173 2.66671 9.33325 2.36823 9.33325 2.00004C9.33325 1.63185 9.63173 1.33337 9.99992 1.33337C10.3681 1.33337 10.6666 1.63185 10.6666 2.00004C10.6666 2.36823 10.3681 2.66671 9.99992 2.66671ZM3.33325 4.00004C2.96506 4.00004 2.66659 3.70156 2.66659 3.33337C2.66659 2.96518 2.96506 2.66671 3.33325 2.66671C3.70144 2.66671 3.99992 2.96518 3.99992 3.33337C3.99992 3.70156 3.70144 4.00004 3.33325 4.00004ZM5.99992 4.00004C5.63173 4.00004 5.33325 3.70156 5.33325 3.33337C5.33325 2.96518 5.63173 2.66671 5.99992 2.66671C6.36811 2.66671 6.66659 2.96518 6.66659 3.33337C6.66659 3.70156 6.36811 4.00004 5.99992 4.00004ZM8.66659 4.00004C8.2984 4.00004 7.99992 3.70156 7.99992 3.33337C7.99992 2.96518 8.2984 2.66671 8.66659 2.66671C9.03478 2.66671 9.33325 2.96518 9.33325 3.33337C9.33325 3.70156 9.03478 4.00004 8.66659 4.00004ZM9.99992 5.33337C9.63173 5.33337 9.33325 5.0349 9.33325 4.66671C9.33325 4.29852 9.63173 4.00004 9.99992 4.00004C10.3681 4.00004 10.6666 4.29852 10.6666 4.66671C10.6666 5.0349 10.3681 5.33337 9.99992 5.33337ZM7.33325 5.33337C6.96506 5.33337 6.66659 5.0349 6.66659 4.66671C6.66659 4.29852 6.96506 4.00004 7.33325 4.00004C7.70144 4.00004 7.99992 4.29852 7.99992 4.66671C7.99992 5.0349 7.70144 5.33337 7.33325 5.33337ZM4.66659 5.33337C4.2984 5.33337 3.99992 5.0349 3.99992 4.66671C3.99992 4.29852 4.2984 4.00004 4.66659 4.00004C5.03478 4.00004 5.33325 4.29852 5.33325 4.66671C5.33325 5.0349 5.03478 5.33337 4.66659 5.33337ZM1.99992 5.33337C1.63173 5.33337 1.33325 5.0349 1.33325 4.66671C1.33325 4.29852 1.63173 4.00004 1.99992 4.00004C2.36811 4.00004 2.66659 4.29852 2.66659 4.66671C2.66659 5.0349 2.36811 5.33337 1.99992 5.33337ZM3.33325 6.66671C2.96506 6.66671 2.66659 6.36823 2.66659 6.00004C2.66659 5.63185 2.96506 5.33337 3.33325 5.33337C3.70144 5.33337 3.99992 5.63185 3.99992 6.00004C3.99992 6.36823 3.70144 6.66671 3.33325 6.66671ZM5.99992 6.66671C5.63173 6.66671 5.33325 6.36823 5.33325 6.00004C5.33325 5.63185 5.63173 5.33337 5.99992 5.33337C6.36811 5.33337 6.66659 5.63185 6.66659 6.00004C6.66659 6.36823 6.36811 6.66671 5.99992 6.66671ZM8.66659 6.66671C8.2984 6.66671 7.99992 6.36823 7.99992 6.00004C7.99992 5.63185 8.2984 5.33337 8.66659 5.33337C9.03478 5.33337 9.33325 5.63185 9.33325 6.00004C9.33325 6.36823 9.03478 6.66671 8.66659 6.66671ZM9.99992 8.00004C9.63173 8.00004 9.33325 7.70156 9.33325 7.33337C9.33325 6.96518 9.63173 6.66671 9.99992 6.66671C10.3681 6.66671 10.6666 6.96518 10.6666 7.33337C10.6666 7.70156 10.3681 8.00004 9.99992 8.00004ZM7.33325 8.00004C6.96506 8.00004 6.66659 7.70156 6.66659 7.33337C6.66659 6.96518 6.96506 6.66671 7.33325 6.66671C7.70144 6.66671 7.99992 6.96518 7.99992 7.33337C7.99992 7.70156 7.70144 8.00004 7.33325 8.00004ZM4.66659 8.00004C4.2984 8.00004 3.99992 7.70156 3.99992 7.33337C3.99992 6.96518 4.2984 6.66671 4.66659 6.66671C5.03478 6.66671 5.33325 6.96518 5.33325 7.33337C5.33325 7.70156 5.03478 8.00004 4.66659 8.00004ZM1.99992 8.00004C1.63173 8.00004 1.33325 7.70156 1.33325 7.33337C1.33325 6.96518 1.63173 6.66671 1.99992 6.66671C2.36811 6.66671 2.66659 6.96518 2.66659 7.33337C2.66659 7.70156 2.36811 8.00004 1.99992 8.00004Z" fill="url(#paint0_linear)"/>
        </g>
        <g clip-path="url(#clip0)">
            <path d="M-8.52991 -1H36.5901V21.0587H-8.52991V-1Z" fill="#012169"/>
            <path d="M-8.52991 -1V1.46437L31.5449 21.0587H36.5901V18.5943L-3.48475 -1H-8.52991ZM36.5901 -1V1.46437L-3.48475 21.0587H-8.52991V18.5943L31.5449 -1H36.5901Z" fill="white"/>
            <path d="M10.2716 -1V21.0587H17.7886V-1H10.2716ZM-8.52991 6.35432V13.7043H36.5901V6.35432H-8.52991Z" fill="white"/>
            <path d="M-8.52991 7.82346V12.2352H36.5901V7.82346H-8.52991ZM11.7741 -1V21.0587H16.2861V-1H11.7741ZM-8.52991 21.0587L6.50862 13.7043H9.875L-5.16794 21.0587H-8.52991ZM-8.52991 -1L6.50862 6.35432H3.14665L-8.52991 0.645783V-1ZM18.1896 6.35432L33.2281 -1H36.5901L21.5516 6.35432H18.1896ZM36.5901 21.0587L21.5516 13.7043H24.9135L36.5901 19.4129V21.0587Z" fill="#C8102E"/>
        </g>
    </g>
    <defs>
        <filter id="filter0_d" x="-2.66675" y="-1.66663" width="17.3333" height="14.6667" filterUnits="userSpaceOnUse" color-interpolation-filters="sRGB">
            <feFlood flood-opacity="0" result="BackgroundImageFix"/>
            <feColorMatrix in="SourceAlpha" type="matrix" values="0 0 0 0 0 0 0 0 0 0 0 0 0 0 0 0 0 0 127 0"/>
            <feOffset dy="1"/>
            <feGaussianBlur stdDeviation="2"/>
            <feColorMatrix type="matrix" values="0 0 0 0 0 0 0 0 0 0 0 0 0 0 0 0 0 0 0.06 0"/>
            <feBlend mode="normal" in2="BackgroundImageFix" result="effect1_dropShadow"/>
            <feBlend mode="normal" in="SourceGraphic" in2="effect1_dropShadow" result="shape"/>
        </filter>
        <linearGradient id="paint0_linear" x1="5.99992" y1="1.33337" x2="5.99992" y2="8.00004" gradientUnits="userSpaceOnUse">
            <stop stop-color="white"/>
            <stop offset="1" stop-color="#F0F0F0"/>
        </linearGradient>
        <clipPath id="clip0">
            <rect width="30" height="22" fill="white" transform="translate(-1 -1)"/>
        </clipPath>
    </defs>
</svg>
