<svg width="28" height="20" viewBox="0 0 28 20" fill="none" xmlns="http://www.w3.org/2000/svg">
    <mask id="mask0" mask-type="alpha" maskUnits="userSpaceOnUse" x="0" y="0" width="28" height="20">
        <path d="M26 0H2C0.89543 0 0 0.89543 0 2V18C0 19.1046 0.89543 20 2 20H26C27.1046 20 28 19.1046 28 18V2C28 0.89543 27.1046 0 26 0Z" fill="white"/>
    </mask>
    <g mask="url(#mask0)">
        <path d="M25.9636 0H2.03636C0.911711 0 0 0.91839 0 2.05128V17.9487C0 19.0816 0.911711 20 2.03636 20H25.9636C27.0883 20 28 19.0816 28 17.9487V2.05128C28 0.91839 27.0883 0 25.9636 0Z" fill="white"/>
        <path d="M28 6.66666H0V13.3333H28V6.66666Z" fill="#0C47B7"/>
        <path d="M28 13.3333H0V20H28V13.3333Z" fill="#E53B35"/>
    </g>
</svg>
